<svg xmlns="http://www.w3.org/2000/svg" width="186.944" height="170.808" viewBox="0 0 186.944 170.808">
  <g id="Group_124" data-name="Group 124" transform="translate(-805.795 -2925.078)">
    <g id="Group_16" data-name="Group 16" transform="translate(281.16 2590.131)">
      <g id="Group_14" data-name="Group 14" transform="translate(524.635 334.947)">
        <path id="Path_1231" data-name="Path 1231" d="M552.838,343.281c.135-.572,1.716.707,2.153,1.511-.817-2.475.958-.366-1.942-4.057-1-2.16,1.537-.116,2.212,1.787l-.475-3.324-1.267.1c-2.269-3.189,2.032-.161-.611-3.883l-1.215,1.5-.758-1.054c.559,1.35-.456,1.434-1.035,1.2-.366-.527-1.054-1.312-.874-1.614-1.948,1.228,3.87,5.651,3.228,7.863C552.285,343.159,552.44,343.107,552.838,343.281Z" transform="translate(-394.394 -332.39)" fill="#302040"/>
        <path id="Path_1232" data-name="Path 1232" d="M551.946,339.329l2.495,4.269-1.832-.116c1.061,1.312,1.183,2.983,2.636,3.71-.071-.289-.193-.836.065-.849,2.211,2.906-.212,2.54,2.443,5.13.2-1.421.836-.9-.547-3.6a3.66,3.66,0,0,1,3.24.579c-.135-.611-1.53-2.36-1.53-2.945a.749.749,0,0,1-.1.27l-3.523-4.2c.5,1.087-.077.849-.264,1.157l-2.867-5.94c-3.665-3.639-2.925-.335-4.77-1.582C550.93,338.281,548.4,337.362,551.946,339.329Z" transform="translate(-401.075 -334.559)" fill="#302040"/>
        <path id="Path_1233" data-name="Path 1233" d="M549.186,336.672l.02-.026Z" transform="translate(-391.346 -325.723)" fill="#302040"/>
        <path id="Path_1234" data-name="Path 1234" d="M541.628,357.03c-.2.289.56,1.35.932,1.884l2.829-2.469c-1.01-1.035-2.977-1.717-2.97-2.842-1.266-1.022-1.151.65-.019,2.244l-1.2-1.877c1.131,2.726-2.848-1.164-3.472-2.8l-.039.077,5.053,9.869C543.826,361.042,540.895,357.808,541.628,357.03Z" transform="translate(-453.742 -246.888)" fill="#302040"/>
        <path id="Path_1235" data-name="Path 1235" d="M529.039,360.333a1.81,1.81,0,0,0-.617-1.517A8.263,8.263,0,0,0,529.039,360.333Z" transform="translate(-504.075 -205.361)" fill="#302040"/>
        <path id="Path_1236" data-name="Path 1236" d="M538.664,353.074l1.575,3.092A21.01,21.01,0,0,0,538.664,353.074Z" transform="translate(-448.471 -236.534)" fill="#302040"/>
        <path id="Path_1237" data-name="Path 1237" d="M534.5,346.748l-.377-.44.842,1.551.006-.007Z" transform="translate(-473.134 -273.264)" fill="#302040"/>
        <path id="Path_1238" data-name="Path 1238" d="M537.916,356.288l-.038.341A.511.511,0,0,0,537.916,356.288Z" transform="translate(-452.738 -219.085)" fill="#302040"/>
        <path id="Path_1239" data-name="Path 1239" d="M534.511,343.047l.791,3.575c-.8-1.324-1.131-.463-2.012-2.07a2.3,2.3,0,0,0,.624,1.627l.2-.3c2.186,4.031,3.7,5.027,4.751,8.589,2.4,1.485,1.151-.649.212-2.533a3.087,3.087,0,0,1-.051-.765l-2.938-5.722Z" transform="translate(-477.652 -290.972)" fill="#302040"/>
        <path id="Path_1240" data-name="Path 1240" d="M528.955,353.927l-.212-.283Z" transform="translate(-502.333 -233.44)" fill="#302040"/>
        <path id="Path_1241" data-name="Path 1241" d="M528.609,353.493l.861,1.157C529.091,354.04,528.911,353.288,528.609,353.493Z" transform="translate(-503.06 -234.446)" fill="#302040"/>
        <path id="Path_1242" data-name="Path 1242" d="M538.408,352.7a27.014,27.014,0,0,1,1.646,2.418l-1.19-2.315A1.876,1.876,0,0,1,538.408,352.7Z" transform="translate(-449.861 -238.576)" fill="#302040"/>
        <path id="Path_1243" data-name="Path 1243" d="M537.936,354.364l.675-1.382-1.087-2.134A29.234,29.234,0,0,0,537.936,354.364Z" transform="translate(-454.66 -248.625)" fill="#302040"/>
        <path id="Path_1244" data-name="Path 1244" d="M542.375,375.479c-1.807,2.385-2.816-4.533-4.668-4.668-.225,1,1.158,3.118,1.273,4.044.412-3.124,5.028,6.577,5.973,4.07,2.643,3.716,1.858,4.893.469,4.442-3.478-2.8-1.44-2.97-4.018-6.41-.264,1.145.367,1.659,1.62,3.793-1.781.148,1.087,6.076-3.452,1.961-.212,1.414,1.177,2.989,2.18,5.162,2.893,3.69,2.783.887,5.439,3.478a7.256,7.256,0,0,1-1.324-1.3l1.331.18c-1.71-.707-2.886-3.7-2.765-4.269.206-.289.591-.881,1.337.174l.251,1.106c1.453.72-1.054-3.568,1.1-2.045a12.766,12.766,0,0,1,1.2,1.858c-1.44-2.964-.733-3.3-1.286-5.78l2.443,4.005c-2.565-4.552-.013-4.757,2.835-3.588-.63-.508-1.208-.752-1.639-1.556-.052-1.4,2.475.656,3.729,2.79-1.813-3.5,4.513.482,2.2-4.1L545.57,357.285a3.416,3.416,0,0,1,.341,1.382c-2.964-2.848-2.848-2.3-4.661-5.8.746,2.186,3.08,4.513,2.237,5.426-.939-1.89-3.826-5.574-5.034-5.2.328,5.015,6.217,15.2,7.875,21.518-2.077-2.359-3.176-.309-4.455-.212-1.839-2.861-1.851-4.1-1.672-5.13a15.685,15.685,0,0,0-1.845.939Z" transform="translate(-453.802 -237.653)" fill="#302040"/>
        <path id="Path_1245" data-name="Path 1245" d="M538.644,354.7a2.443,2.443,0,0,0-.546-.3A1,1,0,0,0,538.644,354.7Z" transform="translate(-451.544 -229.363)" fill="#302040"/>
        <path id="Path_1246" data-name="Path 1246" d="M538.331,355.634l-.212-.27-.045.354A1.178,1.178,0,0,1,538.331,355.634Z" transform="translate(-451.674 -224.102)" fill="#302040"/>
        <path id="Path_1247" data-name="Path 1247" d="M538.416,353.511l-.939-1.89c.11.309.161.579.238.874A2.571,2.571,0,0,0,538.416,353.511Z" transform="translate(-454.915 -244.423)" fill="#302040"/>
        <path id="Path_1248" data-name="Path 1248" d="M538.241,352.52l.746,1.061c.154.058.218.045.328.083A5.443,5.443,0,0,0,538.241,352.52Z" transform="translate(-450.767 -239.542)" fill="#302040"/>
        <path id="Path_1249" data-name="Path 1249" d="M534.261,354.077l.219.7C534.576,354.636,534.454,354.373,534.261,354.077Z" transform="translate(-472.375 -231.089)" fill="#302040"/>
        <path id="Path_1250" data-name="Path 1250" d="M542.546,368.146c.585-.874-2.893-3.7-1.807-4.623l-.5.045c-.489-2.2,1.485-2.643,2.327-3.543,1.087,1.53,2.012,1.28,3.754,3.607.212-1.054.431-2.083-1.138-4.661,1.016.424-.058-2.115,1.248-1.569-1.337-1.183-3.067-5.175-2.925-2.5-.058-.27-.379-.527-.437-.8-2.353-1.234-.026,2.231-.675,2.842-1.511-1-1.112-2.713-1.941-2.925.173,1.948-4.012.6.2,5.587-.328.868-1.331-.167-2.269-.939,3.439,6.172-5.561.72.109,7.56a2.792,2.792,0,0,0,.161-2.8Z" transform="translate(-459.875 -232.37)" fill="#302040"/>
        <path id="Path_1251" data-name="Path 1251" d="M537.638,352.138c-.077.006-.122.084-.206.058A.382.382,0,0,0,537.638,352.138Z" transform="translate(-455.159 -241.616)" fill="#302040"/>
        <path id="Path_1252" data-name="Path 1252" d="M551.916,361.2l3.369,4.745c-.971,2.61-2.687,1.9-4.16,3.427a2.194,2.194,0,0,1-.816-1.337c-.714,1.46-3.2,1.929-2.334,4.674-.392.264-2.52-.373-3.247-1.986.148.54.264,1.093-.058,1.119-1.382-1.562.077-.836-1-2.167-.25.026-.572-.232-.193.309-.867-1.614-4.79-5.227-3.439-6.172,3.6,3.356-.521,1.164,3.2,5.066.45-.315-.926-1.884-1.312-2.417.617-.347,1.46.707,2.218,1.678-.861-1.459,1.292-.219-.039-2.411.772-1.183,2.514,3.163,3.15,2.552l-3.073-4.526,1.781-.135c.418-2.822-6.23-7.072-6.32-10.987,1.563,2.392,5.355,5.458,6.95,5.612-.4.592.906,4.128-.8,3.427,3.665,2.514-.978,1.479,2.63,4.834-1-2.167-.431-3.054.977-2.591l.122.553c1.016-.1-2.121-4.893.155-3.948.334-.508,1.234.752,1.961,1.794C551.491,361.369,551.151,360.27,551.916,361.2Zm-.238,1.685-.945.064C551.453,363.53,551.652,363.324,551.678,362.881Z" transform="translate(-443.194 -238.966)" fill="#302040"/>
        <path id="Path_1253" data-name="Path 1253" d="M546.88,336.841l.463.186A.688.688,0,0,0,546.88,336.841Z" transform="translate(-403.866 -324.664)" fill="#302040"/>
        <path id="Path_1254" data-name="Path 1254" d="M538.475,343.488l.457-.141A.438.438,0,0,0,538.475,343.488Z" transform="translate(-449.497 -289.388)" fill="#302040"/>
        <path id="Path_1255" data-name="Path 1255" d="M538.2,341.39l-.309-1.4C537.739,340.22,537.913,340.741,538.2,341.39Z" transform="translate(-452.966 -307.541)" fill="#302040"/>
        <path id="Path_1256" data-name="Path 1256" d="M546.243,337.333l-.044-.013.107.289Z" transform="translate(-407.567 -322.062)" fill="#302040"/>
        <path id="Path_1257" data-name="Path 1257" d="M541.563,339.752a5.629,5.629,0,0,0,1.054.688A2.089,2.089,0,0,0,541.563,339.752Z" transform="translate(-432.732 -308.86)" fill="#302040"/>
        <path id="Path_1258" data-name="Path 1258" d="M537.949,340.475l.094.05-.151-.314Z" transform="translate(-452.659 -306.363)" fill="#302040"/>
        <path id="Path_1259" data-name="Path 1259" d="M536.371,341.9a4.9,4.9,0,0,0,.129.591A1.074,1.074,0,0,0,536.371,341.9Z" transform="translate(-460.92 -297.226)" fill="#302040"/>
        <path id="Path_1260" data-name="Path 1260" d="M537.977,343.684a1.759,1.759,0,0,0,.129.591Z" transform="translate(-452.201 -287.513)" fill="#302040"/>
        <path id="Path_1261" data-name="Path 1261" d="M535.077,343.942l.038.99A1.083,1.083,0,0,0,535.077,343.942Z" transform="translate(-467.945 -286.113)" fill="#302040"/>
        <path id="Path_1262" data-name="Path 1262" d="M537.433,343.414l.4.63A1.551,1.551,0,0,0,537.433,343.414Z" transform="translate(-455.154 -288.979)" fill="#302040"/>
        <path id="Path_1263" data-name="Path 1263" d="M548.964,338.41l-.019.037.4.5Z" transform="translate(-392.659 -316.145)" fill="#302040"/>
        <path id="Path_1264" data-name="Path 1264" d="M548.378,337.9l.116-.694C548.327,337.31,548.282,337.567,548.378,337.9Z" transform="translate(-396.003 -322.677)" fill="#302040"/>
        <path id="Path_1265" data-name="Path 1265" d="M543.508,340.325a6.9,6.9,0,0,1,1.954,1.8C544.974,341.052,543.2,338.937,543.508,340.325Z" transform="translate(-422.365 -308.232)" fill="#302040"/>
        <path id="Path_1266" data-name="Path 1266" d="M552.757,344.174c-.4-.63-.669-1.138-.926-1.639A4.98,4.98,0,0,0,552.757,344.174Z" transform="translate(-376.986 -293.751)" fill="#302040"/>
        <path id="Path_1267" data-name="Path 1267" d="M552.282,343.512l-.534-1.157C551.883,342.7,552.063,343.088,552.282,343.512Z" transform="translate(-377.437 -294.728)" fill="#302040"/>
        <path id="Path_1268" data-name="Path 1268" d="M548.01,346.17a1.8,1.8,0,0,0-.636-.482C547.863,346.235,548.017,346.318,548.01,346.17Z" transform="translate(-401.184 -276.633)" fill="#302040"/>
        <path id="Path_1269" data-name="Path 1269" d="M556.789,349.882c-.752-1.06-.784-4.7-2.694-3.986-2.514-3.163-.238-2.224-.476-3.324-.894-.495-1.511-2.122-2.52-3.163.116.54.623,1.633.116,1.672-1.324-1.3-1.633-2.675-.81-2.456-1.833-1.26-1.44-2.97-3.151-3.677-.527,2.289-.611,4.256,2.147,9.643.193-1.421.341-3.111,2.051-2.411L553.4,345.1c-2.72-1.742-1.73.418-2.681.778l2.861.051c2.636,1.594,2.54,2.546,2.321,3.542C556.089,349.387,556.359,349.438,556.789,349.882Z" transform="translate(-403.411 -334.947)" fill="#302040"/>
        <path id="Path_1270" data-name="Path 1270" d="M551.405,341.335l.1.045c-.058-.109-.083-.2-.154-.328Z" transform="translate(-379.614 -301.803)" fill="#302040"/>
        <path id="Path_1271" data-name="Path 1271" d="M542.1,352.419l.7,1.138A4.359,4.359,0,0,0,542.1,352.419Z" transform="translate(-429.806 -240.09)" fill="#302040"/>
        <path id="Path_1272" data-name="Path 1272" d="M549.522,339.192h0C549.542,339.231,549.535,339.231,549.522,339.192Z" transform="translate(-389.522 -311.901)" fill="#302040"/>
        <path id="Path_1273" data-name="Path 1273" d="M542.685,351.99l.18.251Z" transform="translate(-426.641 -242.42)" fill="#302040"/>
        <path id="Path_1274" data-name="Path 1274" d="M535.647,343.112l-.334-.341A.45.45,0,0,0,535.647,343.112Z" transform="translate(-466.664 -292.47)" fill="#302040"/>
        <path id="Path_1275" data-name="Path 1275" d="M542.654,351.951l.2.251Z" transform="translate(-426.809 -242.631)" fill="#302040"/>
        <path id="Path_1276" data-name="Path 1276" d="M544.848,348.84l-.894-.791A2.352,2.352,0,0,0,544.848,348.84Z" transform="translate(-419.751 -263.815)" fill="#302040"/>
        <path id="Path_1277" data-name="Path 1277" d="M543.305,348.2l-.308-.244Z" transform="translate(-424.947 -264.326)" fill="#302040"/>
        <path id="Path_1278" data-name="Path 1278" d="M542.03,338.154a.52.52,0,0,0-.283.476C541.92,338.6,542.055,338.476,542.03,338.154Z" transform="translate(-431.733 -317.536)" fill="#302040"/>
        <path id="Path_1279" data-name="Path 1279" d="M542.713,352.029c.2.315.392.656.611,1.087A11.813,11.813,0,0,0,542.713,352.029Z" transform="translate(-426.488 -242.208)" fill="#302040"/>
        <path id="Path_1280" data-name="Path 1280" d="M543.159,345.379l.138.383.169.087Z" transform="translate(-424.066 -278.311)" fill="#302040"/>
        <path id="Path_1281" data-name="Path 1281" d="M549.318,350.294l.617,1c-.283-1.652,1.9-1.4-.334-4.385-.154.251-2.674-.5-3.87-2.346.148,1.086-2.173-.373-2.025.289,2.031.971,2.083,2.36,2.379,3.735-1.138-.463-1.82-2.379-2.649-2.591l-.778,1.183,1.222-.373,2.006,2.983-.122-.334C546.232,346.906,549.228,353.387,549.318,350.294Z" transform="translate(-426.793 -282.725)" fill="#302040"/>
        <path id="Path_1282" data-name="Path 1282" d="M543.789,345.613a3.275,3.275,0,0,0,.315.881C544.213,346.333,544.04,346.005,543.789,345.613Z" transform="translate(-420.647 -277.041)" fill="#302040"/>
        <path id="Path_1283" data-name="Path 1283" d="M545.426,346.074a2.847,2.847,0,0,0-.09-.662Z" transform="translate(-412.248 -278.132)" fill="#302040"/>
        <path id="Path_1284" data-name="Path 1284" d="M537.822,351.138c.7.791,2.983,1.73,1.215-.373l-1.357-.007Z" transform="translate(-453.813 -249.103)" fill="#302040"/>
        <path id="Path_1285" data-name="Path 1285" d="M546.711,341.4a.42.42,0,0,0-.341.2l.212.373C546.9,342.231,546.781,341.685,546.711,341.4Z" transform="translate(-406.634 -299.902)" fill="#302040"/>
        <path id="Path_1286" data-name="Path 1286" d="M543.05,344.376a3.762,3.762,0,0,0,.547,1.221A3.2,3.2,0,0,0,543.05,344.376Z" transform="translate(-424.659 -283.756)" fill="#302040"/>
        <path id="Path_1287" data-name="Path 1287" d="M547.08,342.2a18.625,18.625,0,0,1,2.276,2.051c.276-.193-.469-1.46-.527-2.07C548.783,342.736,548.263,342.8,547.08,342.2Z" transform="translate(-402.78 -295.695)" fill="#302040"/>
        <path id="Path_1288" data-name="Path 1288" d="M547.35,342.168l.013.058Z" transform="translate(-401.314 -295.744)" fill="#302040"/>
        <path id="Path_1289" data-name="Path 1289" d="M598.039,430.684l.128.643-.341-.669-1.151-.135a1.506,1.506,0,0,1,.032.553,2.516,2.516,0,0,0-.354-.611l-.4-.083c1.324,2.6,1.427,5.214,2.147,6.8.3,1.325.174,2.321-.321,2.45.366-.225.444-1.029-.694-2.135-1.71-.713-5.053-4.082-3.626.007l.643-.611,2.366,5.973c-2.154-1.511-1.183-2.977-2.373-4.854.727,3.3-5.388-2.077-2.571,2.456-2.076-2.36-5.542-6.288-6.121-5.4,2.842,2.3.99,2.16,3.9,4.732.874,1.607-1.595-.154-.142,1.7l-.752-1.067c-4.494-2.726.026,3.632,1.087,6.082-.778,2.3-2.81,1.344-3.774,2.829-1.4-1.582-5.433-5.748-5.812-5.143,1.569,2.4,1.228,4.378,3.433,7.291,1.9.405-1.183-2.983-1.17-4.108,2.9,2.565,2.449,2.88,4.539,4.115-1.453-.72-1.048,3.459-3.89,1.151l-.129-.553c-2.282-.932-8.19-7.747-6.217-2.3l.713,2.308-.656-.913c-1.414.675-3.729-2.784-2.938.8-.058-.277-.373-.534-.431-.8-2.038-.977-.161,2.81-.167,3.928-2.276-2.057-1.826-2.372-3.015-4.237-2.044.154-.116,5.33,1.44,8.853l-1.961-.688a14.864,14.864,0,0,0-3.067-5.639c-.071.849.932,1.884-.09,1.967-1.125-1.588-2.006-3.215-3.266-5.349-3.407-1.4,4.1,5.561-.636,1.736-.45.315,1.119,2.707,2.559,4.558l-2.72-1.736c1.826,2.372.99,3.285.662,4.14.746,1.061,2.533,2.051,2.025.964,1.453,1.852,1.5,3.247,1.048,3.555-4.147-4.706-2.186,2.977-6.4-3.131-.591,3.138-2.854,5.831-2.436,8.885-1.517-1-2.411-.373-3.781-3.06-1.549,1.247,1.761,6.86-.842,6.789-.624-.5.643-.611-.733-2.179.6,2.758-3.5-.56-3.967,2.006.193-.3-.566-1.363-.938-1.9.688.778.739,2.186.984,3.292-.566-.232-.18-.823-.817-1.337-4.906.1-1.736,8.544-4.867,10.762.894-.63-1.427-4.1-2.5-5.413l-.881.617c1,1.864.386,2.379.849,3.992a5.4,5.4,0,0,1-1.71-1.948c-4.314-1.9,2.282,7.946-1.093,7.934l-2.919-8.454-2.456-1.755-1.363-3.819c-2.1-1.247.733,3.3-1.357.939-.424-.791.077-.842-1-2.16-1.4-.444.058,1.4-.02,2.257-2.867-5.94-.43-7.818-.154-10.087-.122-.553.81,1.331,1.189,1.864.386-.6,1.968.694,1.916-.707-1.318-2.424-1.575-1.279-2.076-1.228-1.459-1.858-1.2-1.884-1.074-2.449,2.077,2.353,2.687-.772,5.587,1.8,1.292-2.353-5.478-6.018-2.739-6.513l2.848,2.308c-.682-3.041-.836-6.107.88-6.532l-.186.309a7.682,7.682,0,0,0,2.327,2.314c1.9.424-.032-3.632,2.822-1.331a30,30,0,0,1-1.447-9.984c3.35,3.382.984,4.41,2.359,7.11l1.087-.932c-.636.611.244,2.224,1.55,4.642,1.524-.129-.791-3.581-.643-5.266.746,1.054,1.376,1.562,1.82,1.241l-1.877-2.52a1.164,1.164,0,0,0,.63.38l.4-2.829c-1.2-.752-2.957-2.848-3.407-2.527,1.318,1.286,1.2,1.865.739,2.173-.932-1.884-1.517-.99-2.584-2.308a3.96,3.96,0,0,0,1.678-2.945l2.025,2.083c1.273-.1,1.093-2.051,2.179-1.852l.81,1.331c1.53-.122,1.3-2.34,3.954-.875-1.241-3.266-1.909-6.288-3.407-9.541-2-3.2,5.523,1.524,3.144-3.337a31.427,31.427,0,0,1,1.691,4.083c1.016-.09-1.427-4.1,1.28-1.235-2.3.187,2.077,2.359,2.134,3.761a2.775,2.775,0,0,0,.341-3.118c-1.08.939-3.073-4.513-3.092-2.276-1.247-3.259-.906-5.252.939-5.111a5.016,5.016,0,0,0,2.533,2.044l-1.26-2.154c.765-.058.926,3.015,2.449,2.887-1.684-4.07,4.526-.637.007-7.008,2.719,1.749.533,3.6,4.082,5.561,1.125,2.719-1.845,1,.405,4.172-.045-1.4,2.34,2.334,2.784,2.019l-.8-2.449-.251.019c-1.119-3.844,1.948-4.083,3.105-5.851-1.163-4.121-3.857-9.232-2-10.209.99,2.147,2.726.611,4.4,4.68,2.031.951,1.228-1.491.161-2.81-1.016.077-.579-.238-1.652-.431-.945-1.89-.038-2.514,1.17-1.768-.264.019.051.276.431.8,1.652.424-.939-1.884-.932-3.009,2.019,2.077,1.729-.418,3.189.309l-1.877-3.774c1.312,2.411,1.337.174,3.028,1.993-.675-1.9-2.366-4.848-1.1-4.957.566,1.363,2.038.958,3.793,3.067,3.053.875-2.475-7.657,1.331-5.709.373.527,1.254,2.134,2.07,2.347-.187-.836.547-1.022.682-1.518l.045.064-.039-.071c.071-.244-.051-.591-.469-1.106-1.157-2.527-2.623-4.873-2.983-7.522-2.076-2.353-2.218-.662-1.974.45l1.626,2.668c-3.337-3.375-.45,1.447-1.723.424-2.88-4.822-.135-5.317-1.182-8.879-3.465-2.8-5.394-2.1-6.359-.611l1.768.977-.643.611,2.783,2.025c-1.016.077-1.028,1.2-1.729,1.537.643-.611,3.665,2.507,2.842,2.3-2.72-1.742.482,2.205-.212,2.539.5-.051.958-.353,1.833,1.254-3.549-1.955-2.3.193-5.9-2.051,3.459,3.922-.971,1.479,1.607,4.912l.759-.058.984,3.279c-3.658-2.5-1.922-4.038-5.285-5.169-1.665.688,1.871,4.9,1.08,6.069-1.626-2.668-2.495-5.407-1.588-6.031l-1.465-.727c-.875-1.607.533-2.289,1.234-2.629,1.3,3.542,1.151.469,3.356,2.263-1.833-2.379-2.154-1.511-2.951-3.967-.643.6-.585.881-2.179.733,2.752-.5-4.931-9.419-1.691-8.833.109,1.671,3.022,3.118,4.037,4.16a6.7,6.7,0,0,0,.212-2.533l-3.028-3.125c-.232-2.224,5.94,4.565,4.2.219-1.511-2.115-1.53.122-1.652-.431-.219-3.343,4.764,1.588,8.178,3a33.934,33.934,0,0,1-3.51-5.323c1.517,2.128,2.707,2.867,3.395,4.764,1.144.476.463-1.427.212-2.533-1.9-.405-2-3.2-2.823-4.539.771-.058,1.511,2.122,1.691,2.951.829.212,3.729,2.784,1.479-.4,1.755,2.1,3.5,6.449,3.228,7.593l.771-.064c.553,1.356.238,1.1-.514,1.17a18.728,18.728,0,0,1,4.4,4.68c-.315-.251-.373-.527-.682-.778-.836-.219-.656.6.36,1.652,1.993,3.125,2.006,1.331,3.433,2.52l.122-1.054-5.5-10.769c-.02-1.762,2.166.1,3.947.939l-1.832-2.585c.952-.367,2.3-.18,4.359,3.3-.694-.791-.63-.514-.894-.5a5.977,5.977,0,0,1,.521.842l.315.456a23.709,23.709,0,0,0,.2-2.5c1.556,4.655,3.587,4.475,6.917,8.982l.212-2.546c-1.961-.681-1.755-2.1-1.941-2.925,2.083,2.359,1.08-.932,1.851-1l.373.527c1.145.482,1.729-.405,1.742-1.524-.7-.791-3.266-5.349-4.9-8.024-1.7-.129-1.942-1.562-3.26-3.009.205.058.412-.058.18-.386-.437-.8-.952-.765-1.64-1.556-.077,1.974-.861,3.157,1.524,6.892,1.581,1.273-.682-1.909.515-1.17,1.382,2.694.367,2.784-.534,3.414l-1.961-1.806.064,1.8c-.534-1.369-2.5-3.311-1.948-4.455-1.691-1.826-.521,1.164-1.6.964l1.954,2.932c-1.138-1.594-2.539-.913-3.407-3.652l-.476-3.317-1.9-1.543.714-1.453.88,1.62c.29-3.388,4.977,4.918,4.185.212-2.121-3.748-1.787-4.616-.006-4.745-.212,1.4,1.819,2.373,3.079,4.52,1.961.669.019-2.256-.6-3.889,1.639,1.549,2.957,2.841,2,3.2,2.9,3.69.469-1.434,3.613,2.231,2.372-2.148-7.959-13.655-1.234-11.393l1.132,1.6c.289-3.388,2.829-2.469,3.549-5.053l4.487,2.713a14.546,14.546,0,0,0,3.639,5.883c-3.838-3.324-3.42-1.408-5.831-2.9a9.886,9.886,0,0,0,2.282,2.07c-.45.315-2.1-1.241-2.1-.109.682.771,2.083,1.228,2.012,2.077l-2.726-1.749c-.077,1.967,4.2,6.1,2.109,6-1.53-2.3-3.613-5.748-3.568-6.635-.926-.013-.334-1.884-1.877-2.745,1.807,3.793-.63,1.614-.045,4.455-.238-.547-.713-1.19-.617-1.594l-2.61-.077c1.89,1.53.418,3.054,2.816,5.67,2.546-.206.707-1.466,3.825-1.434-.013,1.048,1.614,4.385,3.414,7.2a.487.487,0,0,0-.3-.161c1.942,2.932,2.829,3.42,6.731,8.146-1.935-4.05.906-1.749.3-4.5-1.942-2.745-3.291-2.822-3.234-1.749l-.54-2.43.81,1.331,2.932-.971c-.308.495.791,2.109,1.5,3.42.373-.135,1.215.315,2.135.816-2.1-2.417-3.5-4.2-3.182-4.378,1.909-.592,4.532.971,7.387,3.356l.019-.308c-2.327-2.334-2.745-5.381-4.436-8.332,2.141,2.636,2.031.958,3.549,1.954a53.619,53.619,0,0,0-8.506-9.123c1.3,3.542,1.749,3.215,4.507,7.483l.6,3.877-1.633-2.681c-1.646-.418.225,3.35-2.289.193-1.3-2.417.405-1.71-.913-4.127l-1.446-.72c-1.627-3.8,2.9,2.572,2.218-.469-2.584-2.315-.051-.27-1.054-2.43-1.9-1.537-1.3,2.34-4.68-2.43-1.061-2.437,6.255,3.7,3.311-1.4l.386.547c1.588-.328-.141-3.227-1.067-5.182,1.678,1.067.636-1.524,1-2.1l1.067,1.318.27-1.144c1.633,2.668-.894.636-1.221,1.491l2.083,2.366c-3.1-2.3.051,2.482,1.228,5.04-.932-2.771,2.765-1.279-.971-6.191l2.527,2.038-.5-1.08c1.9,1.543,3.909,4.745,3.645,5.883a5.718,5.718,0,0,1-1.331-1.305c.565,1.363,1.819,3.5.546,3.62l-.63-1.646c-1.157.656-1.292,2.347.341,5.028a8.077,8.077,0,0,0,5.169-2.392c-4.141-5.825-6.21-9.3-10.222-14.587.129-1.691.8-3.427,3.131-2.205l.759,1.061c.817.206.951-.367.765-1.2,1.524,1,1.955,2.932,2.842,3.42l-.109-2.791c1.833,2.379.733,3.3.354,3.9a2.061,2.061,0,0,0-.5-1.086c-1.4-.444.72,4.43-2.314,1.3.193.823-1.427-2.97-2.578-2.315-1.716-.7.547,2.482,1.305,3.543,1.067,1.324,2.54.919,3.472,2.8.386-.591-.8-2.456.913-1.742-.386.591,1.106,3.832-.855,2.019.99,3.292,6.217,9.316,6.982,9.258-1.71-1.832-.09-3.922-3.51-5.317-1.446-2.983-.354-3.915-.842-6.114l.38.521.463-1.421a12.716,12.716,0,0,0,1.685,2.938l-1.543-4.635c1.183,3,1.832,1.254,3.034,2-1.5-2.122-2.186-4.024-3.646-4.751-1.774-.984.566,1.357.167,1.942l-1.87-3.774.321.257-1.7-2.951c1.158-.643,4.526,6.378,3.723,2.777l-3.073-3.382c1.922-.714,7.1,1.672,6.815-.823A32.343,32.343,0,0,0,624.134,360c-.951-.232-1.761.649-2.141,1.511-.63-.514-2.629-4.841-1.292-4.654-5.111-5.491,1.1,4.95-3.813-.829-3.484-.553,3.311,6.75-1.061,4.578,2.135,2.63.624,1.633,2.443,4.005,3.973,3.883,1.929-1.832,4.153-1.17a3.576,3.576,0,0,0,.559,1.35c1.337.18,1.151-.643.849-2.019l-.315-.257c-1.247-3.266,2.148,1.5,3.6,2.231-.122-.553,1.215-.379-.489-2.205l2.977,1.716-2.456-2.874c.386-.6,2.083,1.228,1.093-.939l-2.135-2.623-2.044.161c-.051-1.4-1.877-2.655-1.613-3.793,1.556,3.523,1.761.977,3.844,3.33l-.681-1.909.437.81c1.53,1-.309-1.382.463-1.434-1.781-.99-3.671-2.514-2.867-.051a12.259,12.259,0,0,1-.784-4.706c-.347-1.556,1.691.116,2.456-.026-.135,1.877,6.885,7.632,3.336,7.413-.379-.534-.129-.553.193-.3-3.022-3.112-1.029,1.209-.418,2.835,1.7,1.832,1.639,2.681,3.291,3.112-1.273-1.022-2.886-4.822-.855-3.851l3.266,4.211,1.472-.392.051.276c2.6,2.315.727-1.453,2.745-.5-.681-1.909,2.321-2.424-2.109-6,2.784,2.025.662-1.729.926-2.88l-2.289-.939c-1.369-3.812-.1-1.659-3.118-7.04a17.655,17.655,0,0,1,2.771,3.144c1.6-.964,4.6-1.485,2.661-5.536,1.151-.656,5.31,4.05,5.15.99-.18-.823-3.408-3.652-1.5-3.24.321.251,1.62,3.787,2.392,2.6-1.871-3.774,3.182.308,1.884-3.227,1.446.72,1.974-.437,3.857,2.212a1.8,1.8,0,0,0-1.17,2.906c-1.138-1.6-1.774-.99-2.147-2.643-2.784-.887.489,2.205-1.672,1.813.752,1.067,2.848,2.308,2.34,1.221,2.835,3.407-.791,3.427,3.568,6.725,1.414-.675-4.128-8.081-.135-5.323,1.305,2.411-.784,1.183,1.665,5.195l1.967.688L652,350.706l.386.527c4.05,1.909-1.549-4.642-1.652-7.445-2.719-1.736-4.712-6.069-6.493-7.04.521-1.164,1.55-1.247,4.372,2.173.662,4.14,2.893,3.69,4.192,8.351,1.26,1.022,3.767,5.3,4.989,4.931-1-3.285-2.655-2.6-2.578-4.565a4.754,4.754,0,0,1,1.016,1.042c-1-2.167,1.074.193.019-2.237l.431.8c2.411,1.492-1.183-2.983,1.286-1.221-2.334-2.34-1.311-2.417-2.244-4.308-1.4-.456-4.745-3.819-5.779-2.629,1.511,2.128,2.527,3.17,2.835,4.545l.572-.887c.1.469.405,1.093.579,1.62l-1.607-.418c-.232-2.224-2.443-4.005-3.761-6.423,1.595.154.264-1.151,1.35-.951,2.379,2.989,5.838,3.645,8.4,4.712-.251.013-.392.251-.559.27.8,2.462,2.526,2.038,3.221,2.822l-.688-1.916a2.33,2.33,0,0,0,1.067,1.318c.27-1.131-2.18-4.025-1.916-5.163,1.389,1.575,2.816,4.533,3.967,5.015,1.318,1.286,4.911,4.648,4.687,2.424a2.338,2.338,0,0,1-.418-1.723,1.128,1.128,0,0,0,.109.347l2.1,1.247c1.742,3.2-2.167-.405-.418,2.816l2.121,2.668c-.411.36-.052,1.967.81,3.549,1.016-.09.578-.887.849-2.031A9.087,9.087,0,0,1,675.3,356.4l-1.125-1.588c-2.655-1.46.8,3.581-.675,3.979-.251.019-.309-.257-.682-.784,1.235,3.266-2.495.476-.559,4.533l-.874-1.614c.354,1.595,1.369,5.1,2.315,8.531l.842,1.029c.63.508.187.823-.386.6l-.013-.019c.476,1.71.881,3.3,1.151,4.532a3.523,3.523,0,0,0,1.607.874c-.817-1.357,1.029-1.215-1.363-3.825,1.832,1.254.643-1.742,1.852-.99-2.09-1.235-1.684-2.945-2.822-4.545,1.64,1.556.836-.9,2.668,1.479.624.5-1.581-1.273-.707.334,1.119,2.707,2.784.887,3.652,3.626-.289-2.494,1.684-2.938,1.009-5.973l-1.389-.437c.765-.064,1.479-1.524,2.488-.476-.135.572-.579.887-.649,1.73,2.135,2.629,1.093-.926,2.475.643l-2.244-5.426-.7.334c-.945-1.89,1.858-.984,3.067-1.363,2.437,4.005-1.286,1.222-1.054,3.44.425,1.936,3.279,3.105,3.33,4.5.855.694,1.2.244.675-.836l.791.437c2.1,3.735.193,4.1,1.633,7.612a10.654,10.654,0,0,0-.733-1.234c-1.716-.7-2.353-.09-2.3,1.312,1.2.739.758-.071.643-.611.688.784.36,1.639.862,2.726,1.4.45,1.7,1.826,2.52,2.045.245,1.1-.263,1.138-1.029,1.2-1.26-1.016-1.183-1.864-2.565-3.427.3,1.382-3.112-2.289-2.308.174,1.537-.122,2.642,3.716,3.2,5.073l.257-.019c1.254,2.147,1.054,2.43-.578.881-.244-1.1.578-.881-1.119-2.713a1.527,1.527,0,0,0-.205,1.427l-.874-1.607-.978,1.479c1.2,1.858,2.829,4.539,4.713,7.181-1.582-1.279-.965.36-.765,1.2l-.45-.823c-1.768-.964-2.051,1.292-.913,2.887-1.524-1-4.989-11.939-6.738-8.152-1.093.926,3.266,5.349,4,7.522a4.962,4.962,0,0,0-.688-.778c-.771.051.688,1.909.926,3.009.887.489,1.331.174.9-.63,1.5,2.115-1.151.649-.218,2.533-2.07-3.485-1.9-.405-2.842-2.3-2.6-1.2-1.613,2.1-.238,4.783-3.851-3.33-.714,1.459-3.253.54.257-.019.077-.842.649-.617-1.427-2.951-2.16-.38-3.092-3.388.122.546,1.067,1.318.952.759a4.424,4.424,0,0,0-1.447-2.97l-2.649-1.453-.193-.842-3.787-1.929a7.178,7.178,0,0,0,1.318,1.286c-2.61-.064-2.964,3.041-4.622,3.735,5.477,7.136-.817,5.67,1.62,10.814a46.135,46.135,0,0,0-5.458-7.156c0-.495-1.826-3.69-.8-3.562,1,1.042,2.713,1.742,3.337,3.375.849-2.025-2.713-2.867-4.4-5.812-1.106,2.045,1.266,6.9,1.568,9.406l-.707-.8.489,2.205c1.029-.077,4.237,3.87,2.27,3.2l-.064-.283c-1.832-1.254-1.221,1.5-2.179,1.858l1.375,2.687c-.958.36-4.481-3.844-6.815-6.172-1.414.662.778,4.687,1.652,7.432-1.9-1.537-4.012-.527-4.931-3.53.289,2.495,8.66,12.2,2.334,8.216l-1-2.166c-1.421,1.8-.951,7.368-3.3,6.159-4.635-6.918-7.528-4.725-13.006-10.73,1.266,1.357,1.009,2.372,1.549,3.215-.746-.624-1.575-1.138-.758.36,1.71.707,4.9,6.9,4.1,3.3,2.893,4.828,4.828,8.879,3.221,9.843l-2.134-2.629,1.781-.135c-1.71-1.833-1-2.167-1.5-3.253-3.311.264-4.777-6.345-6.641-4.23,1.2,1.864.745,1.054.745,2.186.193-.3-1.254-2.141-1.7-1.832l1.311,2.424c-4.346-3.742-1.1-3.858-4.269-6.4-.868-2.739-.334-5.015-3.362-8.133-2.353-.09,3.948,7.252,1.28,6.911l-1.318-1.292c.3,1.369,2.115,3.742,2.99,5.355-.695-.8-1.318-1.292-1.833-1.26,1.935,4.05,1.922,5.175,4.179,9.477-.218-4.449,3.864,1.093,3.973-3.118.566,1.363-.283,3.395,2.61,7.085l-2.147-2.636c.431,1.935.855,3.851-.727,3.7l-.688-1.909c.354,2.777-5.195-2.385-2.507,2.719q.771-.048.578-.887c.366,1.652-.591,2.006-1.6,2.1l2.231,5.42c-1.061-1.305-1.968-.682-3.279-3.093-2.6-1.2.167,3.073.148,4.179-3.279-1.954-.167-1.935-3.06-5.632-2.353-.083-2.886,2.192-1.7,5.175a4,4,0,0,1,1.723,1.286c-.72-.791-1.093-.122-1.414.1l1.2,1.871a5.632,5.632,0,0,1-2.842-3.426c-.758.071,1.369,3.812-1.157,1.781-.868-2.733,1.665-1.82,1.042-3.453-.347,3.105-6.011-3.729-6.429.232-.694-.791-1.633-2.675-2.07-2.347-.463,1.427,2.636,3.71,3.889,5.851-.116-1.678,1.087-.939,3.3.849l.939,1.549c-.624-.7-1.125-.341-1.845-.919l2.205,2.906c-2.507-3.15-5.227-4.893-4.861-3.24,2.462,1.761,2.205,1.774,5.3,5.182,1.928,4.044-3.678-2.514-1.672,1.806-.752-1.054-.553-2.475-1.89-2.655-.707.347,1.382,2.707,1.626,3.8-1.7-2.951-3.407-4.783-5.464-8.249.771-1.183.443-.315.534-2.282l-2.675-1.485c.534-1.151-1.807-3.491-2.552-4.545-3.684-1.389,2.115,4.873.585,5,1,2.16,1.222-.373,2.025,2.09-1.221.366,1.183,1.864,1.106,3.825l-.816-1.331c-1.582-1.286-.322.868-.463,1.427.251,1.112,7.882,8.634,6.4,10.152a18.9,18.9,0,0,0-1.118-1.575L607.631,428.26a11.191,11.191,0,0,1-7.11,2.5c-3.967-3.883-1.537-4.635-3.234-6.455l1.588.148c1.434,1.845-1.363,2.07,2.051,4.6.469-2.559,2.874-1.067,1.267-5.985-3.98-3.9-1.3,2.34-4.963-.173.63-.051.572-.8.392-1.678l-4.327.572.617,1.221a6.387,6.387,0,0,1,2.045-.006c-1.215.366-.032,3.362,2.481,6.525l.258-.019.475,1.247Zm-59.308,47.755a10.745,10.745,0,0,0-.765-1.2A4.256,4.256,0,0,1,538.731,478.439Zm68.4-72.86c-1.582.54-3.5.694-4.976,1.279,7.188,4.43,12.518,7.889,8.917,10.646l.141.636a1.744,1.744,0,0,0,2.321-1.241c-1.2-2.681-5.908-12.3-6.519-13-1.633-1.543-.386.592-1.209.386Zm9.386,9.611c1.254.122-.032-1.112-.938-2.43l-.334,1.061A5.39,5.39,0,0,1,616.516,415.19Zm-2-3.626a.372.372,0,0,1-.379-.1ZM599.922,421l.006-.135-.726.122A.6.6,0,0,0,599.922,421Zm3.87,1.864-1.691-2.385-.681.122A14.774,14.774,0,0,0,603.793,422.866Zm10.589,3.709c-1.954-2.932-1.113-3.832-3.632-6.995a2.11,2.11,0,0,0-1.485-1.073l-1.009.4a8.174,8.174,0,0,1,.9,1.414c.6.155,1.428.778,2.9,2.791-4.166-3.588,1.813,3.5.161,3.067C613.783,428.588,614.87,427.649,614.382,426.576Zm52.6-57.109,1.717,1.672.733,1.993c-1.53.128-6-3.716-3.7.855a30.308,30.308,0,0,1-4.719-4.005,2.071,2.071,0,0,1,.99.09C659.79,362.414,668.2,374.976,666.977,369.466Zm-15.693,3.716a3.445,3.445,0,0,0-.437-.817c2.559,7.516,2.147,10.647.8,11.386a16.657,16.657,0,0,0,5.87,3.5l1.7,2.945-1.954-1.8,1.17,2.983c1.652,1.562,1.974.688,3.485,1.684-.367-.521-1.537-4.635-2.482-6.532l-2.533-.913c.881.489,1.787-1.267,1.8-2.391-1.061-1.305-3.671-2.507-1.466.4-1.7-1.826-.611-2.758-3.015-4.243-.868-2.739,1.864-2.115,3.266-1.665l2.777,3.144c1.7.7-2.765-4.263-.431-3.06-.457,1.44,3.1,3.414,2.52,4.295,1.254,1.016,2.822,3.42,3.4,2.527-2.88-4.816,3.041,2.006.534-2.282,1.517,1,1.691,2.938,2.97,2.848-.932-3.015-2.315-4.578-4.835-7.741-1.581-.161,2.372,4.854,1.042,4.681l-3-6.5c-.881-.534-1.138-.456-1.125-.109a7.017,7.017,0,0,0-1.074-2.8l-.99-1.845c-.823.63-1.594,1.138-2.81-.077l-1.138-1.6c-1.433-1.157-.99.309-.289,1.594-.585.752.444,3.446-1.331,1.62l-.874-1.607A4.524,4.524,0,0,1,651.284,373.182Zm-31.65,20.367c5.1,5.092,9.734,9.5,11.418,6.474l.122.546c4.121,2.437-1.357-6.616,3.362-4.012.977,2.694.861,2.475,3.992,7.921l-.5-2.224c2.263,3.2,1.768.984,2.469.649l2.45,4.012c-1.2-.746-2.418-.373-1.71.424-.135-.56-4.938-3.536-4.829-1.871,2.083,2.366,2.868.064,5.426,4.616-.739-2.179,1.331.174,1.293-1.222.745,2.186,2.578,3.446,3.568,5.6l.4-1.717c.695.784-.09,3.1,3.266,5.349-.624-1.633,1.852-.984-.283-3.613l.681.778c1.28-.1-2.7-3.992-.469-3.324-1.08-1.324-2.019-2.077-2.147-1.511.173.836,1.62,2.668,1.3,3.542-1.967-1.813.958-.36-2.327-3.465-1.633-1.543-.405,2.842-3.17-1.421l1.28-.109c-2.148-2.629-1.44-2.964-3.2-5.06-.3-1.376,2.6,1.189,1.222-1.5-1.189-1.865-4.153-4.713-2.192-4.025,3.851,3.33,5.149.99,5.413-.161l-.752-2.186c-1.382-1.562-1.015,1.215-2.34-1.209l.463-1.44.752,1.067c.508-.045-.051-1.4-.225-2.218,1.247,2.141-.083,1.961,2.308,4.571.907.161,1.813,1.112,1.807.238a2.3,2.3,0,0,0,.534.977c1.9.405-1.62-3.8-2.121-4.873-1.987-4.327-3.658-2.507-5.864-5.419l1.5-3.761a10.513,10.513,0,0,0,2,3.2c1.716.714,1.768,2.109,2.6,1.2-3.156-3.671-.739-3.3-1.851-6.011,1.575,1.279,1.89,1.53,1.247,2.134,2.077,2.36,2.224.675,2.732.617-.308-.752-.276-1.369-.521-2.07a7.2,7.2,0,0,1-2.661-4.115l-.392-.54c-1.511.141-5.2-1.26-3.761,1.717l-.823-1.344c-2.842-1.164,1.157,6.358-3.131,2.218-1.453-1.845-.572-.232-2.707-2.861l.862,2.726-.81-1.331-.913,1.755-.373-.521,3.253,7.2a9.49,9.49,0,0,1,1.749,2.475c.238.752.142.977-.135.952l.013.019-.013-.019c-.611-.045-2.2-1.5-3.176-1.813l1.074-1.357c-1.491-2.025-3.266-3.948-5.021-4.764.2-.289-.939-1.89-1.447-1.852.38.533.174,1.942,1.755,3.227-.656,1.73-6.86-1.691-5.7,3.536-.476-3.324-3.221-1.7-2.379-3.735-3.607-2.231,1.62,3.8.148,4.192-1.009-1.042.707-.328-.861-2.726-2.8.219,1.131,7.47-1.356,7.953l-2.07-2.359Zm-.906,5.812-.321,1.665c.071.013.1-.013.161-.013l.617,2.771c1.388.438,3.979,2.758,4.146,4.7-.752-1.054-2.012-2.076-2.2-2.906-1.775-.977-4.185-1.344-.842,2.031-1.749-4.359,4.095,4.442,2.841,1.17,1.511,2.764.161,2.064.6,3.491a10.458,10.458,0,0,0-5.3-4.8c.186.836-1.08.932-.778,2.308,2.019,2.083,2.643,3.716,3.915,3.62.18.823.116,1.665-1.35.945a2.981,2.981,0,0,0-.675-1.909c-2.031-1.775-2.34-1.369-3.279-2.07l-.212.784a6.5,6.5,0,0,1,.758.662l1.061,2.437c-.116-1.672,1.2.746,2.263,2.064-2.134-2.629-.765.064-.951.36l2.841,2.3c.874,1.607-2.6-1.2-.206,1.421,2.1.1,2.167-.746,2.565-2.456l-2.205-1.787c-.038-2.514,3.787,3.06,5.066,1.832-1.048-2.424,1.942-1.832-1.273-5.78.817,1.337,3.729,2.8,2.726.63-2.443-4.012-1.286-5.793-3.106-7.033-.456.3.6,2.745-1.665.688l.2-1.421-2.154-1.511C622.836,404.023,621.229,402.132,618.727,399.362Zm-36.5-6.86-.077-.026.045-.019Z" transform="translate(-515.303 -329.105)" fill="#302040"/>
        <path id="Path_1290" data-name="Path 1290" d="M550.331,341.144c-.5-1.087.206-1.421-1.5-3.247C550.588,340,548.062,339.08,550.331,341.144Z" transform="translate(-393.263 -318.931)" fill="#302040"/>
        <path id="Path_1291" data-name="Path 1291" d="M550.4,340c-.373-.54-1.067-1.318-.868-1.614l-.27,1.138Z" transform="translate(-390.933 -316.293)" fill="#302040"/>
        <path id="Path_1292" data-name="Path 1292" d="M552.629,343.7c-.932-1.884-1.434-2.964-.727-3.3,4.468,4.97.232,2.225,3.941,7.246,1.466-.392-1.929-5.163-1.408-6.326C552.23,339.533,549.427,339.758,552.629,343.7Z" transform="translate(-380.503 -306.166)" fill="#302040"/>
        <path id="Path_1293" data-name="Path 1293" d="M552.744,343.471l-.37-1.657-.308-.251.37,1.651Z" transform="translate(-375.714 -299.031)" fill="#302040"/>
        <path id="Path_1294" data-name="Path 1294" d="M545.048,337.064c-1.382-1.569-.437.321-.321.874C544.978,337.906,545.55,338.144,545.048,337.064Z" transform="translate(-417.849 -326.764)" fill="#302040"/>
        <path id="Path_1295" data-name="Path 1295" d="M528.81,351.271l-3.247,5.291A35.293,35.293,0,0,0,528.81,351.271Z" transform="translate(-519.597 -246.323)" fill="#302040"/>
        <path id="Path_1296" data-name="Path 1296" d="M546.15,346.654c-.032-2.52-1.787-5.741-1.132-7.47-4.307-1.9,2.032,6.847-2.083,4.648Z" transform="translate(-425.283 -313.429)" fill="#302040"/>
        <path id="Path_1297" data-name="Path 1297" d="M541.852,338.063c2.707,2.861,2,4.32,4.018,6.4.206-1.421-2.012-3.208-1.054-3.555Z" transform="translate(-431.163 -318.03)" fill="#302040"/>
        <path id="Path_1298" data-name="Path 1298" d="M549.15,345.152l.936,1.884-.182-.822Z" transform="translate(-391.54 -279.542)" fill="#302040"/>
        <path id="Path_1299" data-name="Path 1299" d="M542.885,340.254l-.434-.8-1.4-.458Z" transform="translate(-435.507 -312.954)" fill="#302040"/>
        <path id="Path_1300" data-name="Path 1300" d="M541.2,338.943l.443.81Z" transform="translate(-434.703 -313.252)" fill="#302040"/>
        <path id="Path_1301" data-name="Path 1301" d="M549.912,347.423l1.087.195-.88-1.614Z" transform="translate(-387.404 -274.918)" fill="#302040"/>
        <path id="Path_1302" data-name="Path 1302" d="M547.862,345.471l-.308-1.369C547.611,344.372,545.914,343.671,547.862,345.471Z" transform="translate(-403.632 -285.244)" fill="#302040"/>
        <path id="Path_1303" data-name="Path 1303" d="M540.592,339.471l.364,1.657.314.252-.371-1.658Z" transform="translate(-438.005 -310.387)" fill="#302040"/>
        <path id="Path_1304" data-name="Path 1304" d="M547.548,346.108c2.257,2.057-.457,1.44,1.942,2.932C549.8,348.165,548.551,347.156,547.548,346.108Z" transform="translate(-400.239 -274.353)" fill="#302040"/>
        <path id="Path_1305" data-name="Path 1305" d="M544.448,344.574c-.077.065-.1.219.032.547A1.939,1.939,0,0,0,544.448,344.574Z" transform="translate(-417.397 -282.681)" fill="#302040"/>
        <path id="Path_1306" data-name="Path 1306" d="M544.467,345.216c.257-.212,1.26.463.881-.354C544.153,344.072,544.365,344.567,544.467,345.216Z" transform="translate(-417.417 -283.324)" fill="#302040"/>
        <path id="Path_1307" data-name="Path 1307" d="M544.775,347.25l.373-.032c.713,1.35.688,1.086.135-.019.18-.283-.437-1.009-.823-1.536l-.6-1.029.489,1.009C543.952,345.946,543.8,346.254,544.775,347.25Z" transform="translate(-420.25 -282.356)" fill="#302040"/>
        <path id="Path_1308" data-name="Path 1308" d="M537.237,342.055c1.588.148,2.16.379,3.613,2.231,1.3-.1-1.4-3.111-1.5-4.249C538.7,341.161,537.822,340.48,537.237,342.055Z" transform="translate(-456.218 -307.318)" fill="#302040"/>
        <path id="Path_1309" data-name="Path 1309" d="M537.567,340.384a2.034,2.034,0,0,0,.212-.412C537.593,340.024,537.554,340.184,537.567,340.384Z" transform="translate(-454.439 -307.666)" fill="#302040"/>
        <path id="Path_1310" data-name="Path 1310" d="M547.087,347.671l1.752,3.221-.12-.553Z" transform="translate(-402.742 -265.868)" fill="#302040"/>
        <path id="Path_1311" data-name="Path 1311" d="M537.049,340.942c.258-.019.444-.315,1.087.2C536.682,339.289,536.8,340.967,537.049,340.942Z" transform="translate(-458.068 -306.051)" fill="#302040"/>
        <path id="Path_1312" data-name="Path 1312" d="M542.546,346.524c1,1.035,1.016-.09,1.594.148C543.626,346.71,540.6,343.592,542.546,346.524Z" transform="translate(-430.905 -278.922)" fill="#302040"/>
        <path id="Path_1313" data-name="Path 1313" d="M537.5,342.348a7.6,7.6,0,0,1,2.636,2.591C539.64,343.859,537.319,340.4,537.5,342.348Z" transform="translate(-454.847 -297.936)" fill="#302040"/>
        <path id="Path_1314" data-name="Path 1314" d="M541.712,346.581l.628.509-.365-1.651Z" transform="translate(-431.923 -277.988)" fill="#302040"/>
        <path id="Path_1315" data-name="Path 1315" d="M551.188,355.65c-1.112-2.713-5.362-4.333-5.728-7.111-3.356-1.042,2.642,2.957,1.254,3.517C547.96,352.255,550.532,354.724,551.188,355.65Z" transform="translate(-417.2 -262.088)" fill="#302040"/>
        <path id="Path_1316" data-name="Path 1316" d="M545.166,348.956a.59.59,0,0,0-.457.064A1.33,1.33,0,0,0,545.166,348.956Z" transform="translate(-415.652 -258.988)" fill="#302040"/>
        <path id="Path_1317" data-name="Path 1317" d="M541.886,348.8a7.232,7.232,0,0,0-.386-.913A5.607,5.607,0,0,0,541.886,348.8Z" transform="translate(-433.074 -264.717)" fill="#302040"/>
        <path id="Path_1318" data-name="Path 1318" d="M545.882,353.111l-1.678-4.076c1.112,2.713-.675,3.973,2.089,7.117,1.087.206,1.035-1.2.161-2.816Z" transform="translate(-418.394 -258.462)" fill="#302040"/>
        <path id="Path_1319" data-name="Path 1319" d="M536.4,343.421l-.617-1.633-.856.071C535.476,342.212,537.154,344.816,536.4,343.421Z" transform="translate(-468.781 -297.807)" fill="#302040"/>
        <path id="Path_1320" data-name="Path 1320" d="M534.9,341.857l.167-.019C534.974,341.774,534.91,341.774,534.9,341.857Z" transform="translate(-468.922 -297.786)" fill="#302040"/>
        <path id="Path_1321" data-name="Path 1321" d="M542.175,348.751c.514-.038.707-.341.521-1.164C542.072,347.079,540.793,347.182,542.175,348.751Z" transform="translate(-432.766 -267.802)" fill="#302040"/>
        <path id="Path_1322" data-name="Path 1322" d="M535.557,344.135l.257-1.149-.584.885Z" transform="translate(-467.112 -291.301)" fill="#302040"/>
        <path id="Path_1323" data-name="Path 1323" d="M534.586,343.17l-.627-.509.364,1.645.628.509Z" transform="translate(-474.015 -293.067)" fill="#302040"/>
        <path id="Path_1324" data-name="Path 1324" d="M545.182,355.247c.778-.051-1.241-3.266-1.877-3.774l-.829.9c2.334,2.34.2-.289,1.273-.1Z" transform="translate(-427.775 -245.226)" fill="#302040"/>
        <path id="Path_1325" data-name="Path 1325" d="M544.656,354.974c-1.189-1.871.65-1.736,2.038-.167.437.81.43,1.935,1.633,2.674l-2.623-4.834c3.221,1.7,3.7,6.152,4.372,8.068,1.543-.379-.386-3.388.8-4.34a7.966,7.966,0,0,1-2.649-1.684c-2.462-2.893-.3-2.5.3-3.375a6.37,6.37,0,0,1-2.739-3.626,1.461,1.461,0,0,0-.231-.566l-.219-.521-.09.084a12.313,12.313,0,0,0-1.132-1.2c.051,1.4-2.475-.636-2.931-.321,4.359,4.417-.527,2.282.161,4.192l-.225.977-.218.2a6.138,6.138,0,0,1-1.382-2.424c.482,1.17-.765,1.652.585,3.105l-2.16,1.9a4.683,4.683,0,0,1-.83-.624,3.2,3.2,0,0,0,.572.855l-9.418,8.294c.784-.019,2.1.727,3.015.849,1.877,3.774,1.286-.1,3.536,3.08.566,1.357-.2,1.414-1.093.926,1.144,1.6,2.655,2.6,4.1,4.442,2.79.887-3-6.493-.894-6.377,1.447,1.852,2.385,3.735,2.964,2.848l.129.553c-.431-3.06,4.352,3.285,1.035-2.327l2.141,2.63c-1.061-2.43.032-3.362.36-4.237l.373.534c-.726-4.43.457-1.434,1.383-4.314l1.613,3.8c1.717.7-.867-2.739-.1-2.8.386.534,2.077,2.347,2.012,3.2l-1.472-6.616C546.3,355.4,545.665,356.009,544.656,354.974Z" transform="translate(-504.944 -279.664)" fill="#302040"/>
        <path id="Path_1326" data-name="Path 1326" d="M531.779,347.1a.415.415,0,0,0,.521-.257A1.2,1.2,0,0,0,531.779,347.1Z" transform="translate(-485.85 -270.385)" fill="#302040"/>
        <path id="Path_1327" data-name="Path 1327" d="M528.159,348.283l.662-.585A.606.606,0,0,0,528.159,348.283Z" transform="translate(-505.503 -265.721)" fill="#302040"/>
        <path id="Path_1328" data-name="Path 1328" d="M534.486,348.263c-1.53-1.009-1.254-2.141-2.012-3.208l-1.434,1.267c.836,1,1.62,2.25,2.411,3.144Z" transform="translate(-489.862 -280.07)" fill="#302040"/>
        <path id="Path_1329" data-name="Path 1329" d="M530.729,345.012a11.557,11.557,0,0,1,1.209,2.231l.791-.688A4.357,4.357,0,0,0,530.729,345.012Z" transform="translate(-491.55 -280.303)" fill="#302040"/>
        <path id="Path_1330" data-name="Path 1330" d="M537.817,353.35l-.188.308.245,1.1Z" transform="translate(-454.09 -235.038)" fill="#302040"/>
        <path id="Path_1331" data-name="Path 1331" d="M536.453,353.967c1.575,1.273,1.215-.373,1.087-.926C536.9,353.658,536.717,352.835,536.453,353.967Z" transform="translate(-460.474 -236.714)" fill="#302040"/>
        <path id="Path_1332" data-name="Path 1332" d="M538.686,355.622l.057,1.406.307.251Z" transform="translate(-448.349 -222.701)" fill="#302040"/>
        <path id="Path_1333" data-name="Path 1333" d="M528.851,350.034l-.18.437A.459.459,0,0,0,528.851,350.034Z" transform="translate(-502.723 -253.039)" fill="#302040"/>
        <path id="Path_1334" data-name="Path 1334" d="M540.572,354.53c-3.993-1.639-.99-3.292-4.584-6.641l.174,1.948-.759-1.067-.772,1.189a21.532,21.532,0,0,1,3.337,3.375c-1.967.444-2.212-1.787-5.117-3.234l-1.286,1.614-.315-.643c-.1.141.026.418.232.752l-4.308,5.458c.238,2.218,3.221,2.816,4.719,6.063,1.093-.92,4.327-.347,1.44-4.038a6.109,6.109,0,0,0,1.7,1.826l-1.813-3.5-1.4-.444c-1.807-3.491.81-4.545,2.707-3.022-.341,1.993,3.2,5.066-.045,4.487.823.849,2.456,2.212,2.5,3.022C538.038,359.037,541.131,359.262,540.572,354.53Z" transform="translate(-510.856 -264.684)" fill="#302040"/>
        <path id="Path_1335" data-name="Path 1335" d="M526.7,351.96l-.257-.341C526.547,351.818,526.65,351.966,526.7,351.96Z" transform="translate(-514.847 -244.434)" fill="#302040"/>
        <path id="Path_1336" data-name="Path 1336" d="M529.35,355.3l-1.986-4.314-1.228,1.5,1.942,2.565c-.386-.733-.913-2.417.083-1.613Z" transform="translate(-516.486 -247.865)" fill="#302040"/>
        <path id="Path_1337" data-name="Path 1337" d="M526.221,350.515c.116,1.672,2.571,4.565,4.083,5.561.437,1.929-2.964-2.842-.881.637,1.755,2.1,1.588.154,1.459-.4Z" transform="translate(-516.025 -250.427)" fill="#302040"/>
        <path id="Path_1338" data-name="Path 1338" d="M527.285,350.038l.791,1.388.792-.113Z" transform="translate(-510.247 -253.017)" fill="#302040"/>
        <path id="Path_1339" data-name="Path 1339" d="M528.076,350.254l-.791.1c.784.868,1.543,1.717,2.135,2.263Z" transform="translate(-510.248 -251.844)" fill="#302040"/>
        <path id="Path_1340" data-name="Path 1340" d="M527.932,350.323a2.235,2.235,0,0,0-1.144.167Z" transform="translate(-512.946 -251.528)" fill="#302040"/>
        <path id="Path_1341" data-name="Path 1341" d="M528.168,350.662l-.328-.366-.874.116A10.562,10.562,0,0,1,528.168,350.662Z" transform="translate(-511.98 -251.616)" fill="#302040"/>
        <path id="Path_1342" data-name="Path 1342" d="M530.6,352.981c-1.768-1.98-3.645-4.05-3.928-2.861l2.752,3.028Z" transform="translate(-513.565 -254.468)" fill="#302040"/>
        <path id="Path_1343" data-name="Path 1343" d="M537.546,355.756l.364,1.651.326.264-.364-1.651Z" transform="translate(-454.541 -221.974)" fill="#302040"/>
        <path id="Path_1344" data-name="Path 1344" d="M536.772,355.905a12.27,12.27,0,0,0,.573,1.427A3.422,3.422,0,0,0,536.772,355.905Z" transform="translate(-458.743 -221.165)" fill="#302040"/>
        <path id="Path_1345" data-name="Path 1345" d="M547.419,370.8c-2.4-1.485-1.286-3.523-3.337-3.362-1.691-1.826-3.131-4.8-1.736-4.352,1.44,1.845.36,1.652,2.257,3.182-1.318-2.424.006-1.131-2.379-3.729-.72-2.263-2.237-4.256-3.246-6.41.173,1.877-3.864.508-2.025,4.867,2.128,3.748,6.165,7.92,10.062,12.652C548.023,374.681,549.946,373.968,547.419,370.8Z" transform="translate(-460.376 -219.959)" fill="#302040"/>
        <path id="Path_1346" data-name="Path 1346" d="M539.229,360.209c.514-.032.457-.3.334-.862C538.175,357.779,539.428,359.92,539.229,360.209Z" transform="translate(-447.191 -205.564)" fill="#302040"/>
        <path id="Path_1347" data-name="Path 1347" d="M533.225,354.423c.5.72.592,2.038,1.678,3.092l.193-1.575C534.794,356,534.042,355.239,533.225,354.423Z" transform="translate(-478 -229.211)" fill="#302040"/>
        <path id="Path_1348" data-name="Path 1348" d="M533.6,354.553l-.084.681C533.658,355.209,533.7,355.022,533.6,354.553Z" transform="translate(-476.42 -228.505)" fill="#302040"/>
        <path id="Path_1349" data-name="Path 1349" d="M533.165,354.363l.386.386A1.22,1.22,0,0,0,533.165,354.363Z" transform="translate(-478.325 -229.536)" fill="#302040"/>
        <path id="Path_1350" data-name="Path 1350" d="M527.162,350.925c-1.061-1.3-.817-.206-.695.347C526.718,351.246,527.3,351.484,527.162,350.925Z" transform="translate(-515.306 -251.531)" fill="#302040"/>
        <path id="Path_1351" data-name="Path 1351" d="M525.831,353.742l-1.2-.746C525.259,353.51,525.58,353.768,525.831,353.742Z" transform="translate(-524.635 -236.958)" fill="#302040"/>
        <path id="Path_1352" data-name="Path 1352" d="M528.535,359.311a7.68,7.68,0,0,1,.476.726A5.879,5.879,0,0,0,528.535,359.311Z" transform="translate(-503.462 -202.673)" fill="#302040"/>
        <path id="Path_1353" data-name="Path 1353" d="M529.25,359.424c.649,1.273-1.472.206-.38,2.064l-.379-.527.308,1.382C529.147,361.816,530.278,361.211,529.25,359.424Z" transform="translate(-503.7 -202.06)" fill="#302040"/>
      </g>
      <g id="Group_15" data-name="Group 15" transform="translate(534.547 345.472)">
        <path id="Path_1354" data-name="Path 1354" d="M531.114,361.1c-.129.572-1.71-.707-2.154-1.511.817,2.475-.951.366,1.942,4.057,1,2.16-1.53.109-2.211-1.787l.482,3.324,1.266-.1c2.263,3.183-2.037.161.611,3.877l1.215-1.5.752,1.061c-.559-1.35.463-1.434,1.035-1.2.373.527,1.054,1.312.874,1.614,1.955-1.228-3.864-5.651-3.227-7.863C531.667,361.219,531.519,361.27,531.114,361.1Z" transform="translate(-512.532 -211.705)" fill="#302040"/>
        <path id="Path_1355" data-name="Path 1355" d="M537.423,371.029l-2.5-4.275,1.839.122c-1.067-1.312-1.183-2.99-2.643-3.71.071.289.2.836-.058.849-2.211-2.912.212-2.54-2.443-5.13-.206,1.414-.836.9.546,3.6a3.639,3.639,0,0,1-3.24-.585c.128.617,1.524,2.366,1.524,2.944a.94.94,0,0,1,.1-.264l3.529,4.2c-.508-1.087.065-.855.257-1.157l2.867,5.941c3.658,3.632,2.925.334,4.764,1.581C538.433,372.07,540.972,373,537.423,371.029Z" transform="translate(-511.262 -215.516)" fill="#302040"/>
        <path id="Path_1356" data-name="Path 1356" d="M529.177,359.811l-.019.032Z" transform="translate(-509.991 -210.483)" fill="#302040"/>
        <path id="Path_1357" data-name="Path 1357" d="M543.219,347.83c.193-.289-.56-1.35-.939-1.884l-2.822,2.469c1,1.035,2.977,1.717,2.97,2.842,1.26,1.029,1.151-.649.019-2.244l1.19,1.871c-1.125-2.719,2.855,1.17,3.472,2.81l.038-.077-5.053-9.868C541.014,343.819,543.945,347.053,543.219,347.83Z" transform="translate(-454.072 -297.69)" fill="#302040"/>
        <path id="Path_1358" data-name="Path 1358" d="M549.836,337.41a1.775,1.775,0,0,0,.617,1.517A8.752,8.752,0,0,0,549.836,337.41Z" transform="translate(-397.768 -332.1)" fill="#302040"/>
        <path id="Path_1359" data-name="Path 1359" d="M541.02,346l-1.582-3.092A20.856,20.856,0,0,0,541.02,346Z" transform="translate(-454.181 -302.256)" fill="#302040"/>
        <path id="Path_1360" data-name="Path 1360" d="M544.567,351.024l.376.439-.841-1.551-.007.006Z" transform="translate(-428.899 -264.225)" fill="#302040"/>
        <path id="Path_1361" data-name="Path 1361" d="M540.472,340.462l.038-.341A.514.514,0,0,0,540.472,340.462Z" transform="translate(-448.619 -317.382)" fill="#302040"/>
        <path id="Path_1362" data-name="Path 1362" d="M549.712,363.483l-.791-3.581c.81,1.331,1.138.469,2.019,2.076a2.3,2.3,0,0,0-.624-1.627l-.2.3c-2.186-4.031-3.7-5.028-4.758-8.589-2.4-1.485-1.144.65-.212,2.533a2.844,2.844,0,0,1,.058.758l2.938,5.728Z" transform="translate(-429.545 -255.275)" fill="#302040"/>
        <path id="Path_1363" data-name="Path 1363" d="M549.572,342.774l.205.283Z" transform="translate(-399.163 -302.978)" fill="#302040"/>
        <path id="Path_1364" data-name="Path 1364" d="M550.465,343.975l-.861-1.157C549.99,343.429,550.163,344.181,550.465,343.975Z" transform="translate(-398.989 -302.739)" fill="#302040"/>
        <path id="Path_1365" data-name="Path 1365" d="M541.323,345.805a25.628,25.628,0,0,1-1.639-2.417l1.183,2.314A1.746,1.746,0,0,1,541.323,345.805Z" transform="translate(-452.845 -299.645)" fill="#302040"/>
        <path id="Path_1366" data-name="Path 1366" d="M541.336,345.068l-.682,1.382,1.087,2.135A28.952,28.952,0,0,0,541.336,345.068Z" transform="translate(-447.579 -290.524)" fill="#302040"/>
        <path id="Path_1367" data-name="Path 1367" d="M552.376,353.487c1.813-2.392,2.822,4.532,4.668,4.668.225-1-1.157-3.118-1.267-4.044-.418,3.124-5.027-6.583-5.979-4.07-2.636-3.716-1.858-4.892-.463-4.442,3.478,2.8,1.434,2.964,4.018,6.41.264-1.144-.373-1.659-1.62-3.793,1.774-.154-1.087-6.082,3.452-1.961.206-1.421-1.183-2.989-2.186-5.163-2.886-3.69-2.777-.887-5.439-3.484a7.552,7.552,0,0,1,1.331,1.3l-1.337-.18c1.71.707,2.893,3.684,2.764,4.269-.2.289-.591.881-1.337-.174l-.251-1.106c-1.446-.72,1.054,3.568-1.1,2.044a12.564,12.564,0,0,1-1.189-1.865c1.433,2.97.733,3.3,1.285,5.793l-2.443-4.012c2.559,4.552.013,4.757-2.835,3.587.624.508,1.2.752,1.633,1.556.052,1.4-2.469-.656-3.729-2.79,1.82,3.5-4.513-.482-2.192,4.1l11.019,21.544a3.391,3.391,0,0,1-.334-1.382c2.964,2.848,2.842,2.3,4.655,5.8-.746-2.186-3.073-4.513-2.231-5.426.932,1.89,3.819,5.574,5.034,5.2-.334-5.015-6.223-15.2-7.882-21.518,2.083,2.36,3.176.309,4.461.206,1.839,2.867,1.852,4.1,1.666,5.137a15.171,15.171,0,0,0,1.845-.939Z" transform="translate(-463.924 -331.03)" fill="#302040"/>
        <path id="Path_1368" data-name="Path 1368" d="M540.165,342.02a2.307,2.307,0,0,0,.547.3A1.027,1.027,0,0,0,540.165,342.02Z" transform="translate(-450.234 -307.072)" fill="#302040"/>
        <path id="Path_1369" data-name="Path 1369" d="M540.233,341.127l.219.27.038-.354A1.082,1.082,0,0,1,540.233,341.127Z" transform="translate(-449.865 -312.376)" fill="#302040"/>
        <path id="Path_1370" data-name="Path 1370" d="M540.725,344.547l.938,1.89a8.236,8.236,0,0,1-.238-.875A2.637,2.637,0,0,0,540.725,344.547Z" transform="translate(-447.194 -293.353)" fill="#302040"/>
        <path id="Path_1371" data-name="Path 1371" d="M541.013,344.908l-.746-1.061c-.148-.058-.212-.045-.328-.083A5.583,5.583,0,0,0,541.013,344.908Z" transform="translate(-451.461 -297.603)" fill="#302040"/>
        <path id="Path_1372" data-name="Path 1372" d="M544.3,342.982l-.219-.707C543.981,342.423,544.11,342.686,544.3,342.982Z" transform="translate(-429.157 -305.687)" fill="#302040"/>
        <path id="Path_1373" data-name="Path 1373" d="M544.164,340.4c-.579.875,2.9,3.7,1.813,4.622l.5-.051c.489,2.205-1.491,2.649-2.327,3.549-1.087-1.53-2.019-1.279-3.754-3.607-.219,1.054-.437,2.083,1.131,4.661-1.016-.425.058,2.109-1.241,1.569,1.337,1.183,3.067,5.175,2.925,2.5.058.27.379.527.431.8,2.359,1.235.026-2.237.681-2.835,1.5.99,1.113,2.707,1.942,2.919-.18-1.948,4.012-.6-.206-5.587.328-.868,1.331.167,2.276.932-3.44-6.165,5.555-.714-.116-7.554a2.8,2.8,0,0,0-.154,2.8Z" transform="translate(-449.809 -315.889)" fill="#302040"/>
        <path id="Path_1374" data-name="Path 1374" d="M540.884,344.379c.071-.007.116-.09.206-.058A.368.368,0,0,0,540.884,344.379Z" transform="translate(-446.33 -294.618)" fill="#302040"/>
        <path id="Path_1375" data-name="Path 1375" d="M539.652,352.27l-3.375-4.751c.978-2.6,2.688-1.9,4.166-3.427a2.237,2.237,0,0,1,.817,1.344c.714-1.459,3.2-1.929,2.334-4.674.392-.264,2.52.373,3.247,1.987-.154-.54-.263-1.093.058-1.119,1.382,1.562-.077.836,1,2.167.251-.026.572.232.186-.309.874,1.614,4.79,5.227,3.439,6.172-3.594-3.356.521-1.164-3.2-5.066-.443.309.932,1.884,1.312,2.417-.611.347-1.453-.707-2.212-1.678.855,1.453-1.3.218.038,2.411-.778,1.176-2.514-3.163-3.157-2.559l3.08,4.526-1.787.141c-.411,2.822,6.23,7.072,6.326,10.987-1.562-2.392-5.355-5.458-6.95-5.612.392-.592-.913-4.121.8-3.427-3.665-2.513.971-1.479-2.629-4.834,1,2.167.424,3.054-.984,2.591L542.05,349c-1.016.1,2.122,4.893-.16,3.948-.328.508-1.228-.752-1.954-1.794C540.07,352.1,540.417,353.2,539.652,352.27Zm.238-1.684.938-.071C540.115,349.942,539.916,350.142,539.89,350.585Z" transform="translate(-471.342 -314.216)" fill="#302040"/>
        <path id="Path_1376" data-name="Path 1376" d="M531.864,359.778l-.469-.186A.7.7,0,0,0,531.864,359.778Z" transform="translate(-497.846 -211.672)" fill="#302040"/>
        <path id="Path_1377" data-name="Path 1377" d="M540.258,353.1l-.456.141A.441.441,0,0,0,540.258,353.1Z" transform="translate(-452.204 -246.918)" fill="#302040"/>
        <path id="Path_1378" data-name="Path 1378" d="M540.455,356.25l.308,1.4C540.911,357.42,540.744,356.9,540.455,356.25Z" transform="translate(-448.659 -229.816)" fill="#302040"/>
        <path id="Path_1379" data-name="Path 1379" d="M532.2,359.372l.044.013-.107-.289Z" transform="translate(-493.841 -214.361)" fill="#302040"/>
        <path id="Path_1380" data-name="Path 1380" d="M537.669,357.291a5.377,5.377,0,0,0-1.048-.688A2.079,2.079,0,0,0,537.669,357.291Z" transform="translate(-469.475 -227.9)" fill="#302040"/>
        <path id="Path_1381" data-name="Path 1381" d="M540.526,356.251l-.094-.05.151.314Z" transform="translate(-448.787 -230.081)" fill="#302040"/>
        <path id="Path_1382" data-name="Path 1382" d="M542.095,355.073a4.582,4.582,0,0,0-.129-.6A1.05,1.05,0,0,0,542.095,355.073Z" transform="translate(-440.514 -239.453)" fill="#302040"/>
        <path id="Path_1383" data-name="Path 1383" d="M540.479,353.283a2.227,2.227,0,0,0-.128-.6Z" transform="translate(-449.224 -249.171)" fill="#302040"/>
        <path id="Path_1384" data-name="Path 1384" d="M543.388,353.356l-.032-.99A1.08,1.08,0,0,0,543.388,353.356Z" transform="translate(-433.494 -250.903)" fill="#302040"/>
        <path id="Path_1385" data-name="Path 1385" d="M541.257,353.58l-.4-.63A1.573,1.573,0,0,0,541.257,353.58Z" transform="translate(-446.504 -247.732)" fill="#302040"/>
        <path id="Path_1386" data-name="Path 1386" d="M529.719,358.508l.019-.038-.4-.5Z" transform="translate(-508.994 -220.49)" fill="#302040"/>
        <path id="Path_1387" data-name="Path 1387" d="M530.115,359.148l-.122.688C530.16,359.727,530.205,359.476,530.115,359.148Z" transform="translate(-505.458 -214.083)" fill="#302040"/>
        <path id="Path_1388" data-name="Path 1388" d="M536.52,358.043a6.988,6.988,0,0,1-1.954-1.8C535.06,357.316,536.835,359.432,536.52,358.043Z" transform="translate(-480.637 -229.854)" fill="#302040"/>
        <path id="Path_1389" data-name="Path 1389" d="M526.373,353.672c.4.63.669,1.138.926,1.639A4.98,4.98,0,0,0,526.373,353.672Z" transform="translate(-525.111 -243.812)" fill="#302040"/>
        <path id="Path_1390" data-name="Path 1390" d="M526.517,353.927l.533,1.151C526.909,354.743,526.736,354.351,526.517,353.927Z" transform="translate(-524.329 -242.428)" fill="#302040"/>
        <path id="Path_1391" data-name="Path 1391" d="M530.875,350.754a1.793,1.793,0,0,0,.636.482C531.016,350.689,530.869,350.606,530.875,350.754Z" transform="translate(-500.67 -260.008)" fill="#302040"/>
        <path id="Path_1392" data-name="Path 1392" d="M529.855,359.192c.759,1.054.784,4.7,2.694,3.98,2.52,3.17.238,2.231.482,3.33.887.5,1.511,2.122,2.514,3.163-.109-.54-.617-1.633-.109-1.678,1.324,1.305,1.633,2.681.81,2.462,1.832,1.26,1.434,2.97,3.15,3.677.527-2.289.611-4.256-2.147-9.643-.193,1.421-.347,3.111-2.057,2.411l-1.942-2.925c2.72,1.742,1.723-.418,2.681-.778l-2.867-.051c-2.636-1.594-2.533-2.546-2.321-3.542C530.563,359.687,530.292,359.636,529.855,359.192Z" transform="translate(-506.207 -213.844)" fill="#302040"/>
        <path id="Path_1393" data-name="Path 1393" d="M527.067,355.409l-.09-.051a2.225,2.225,0,0,0,.154.334Z" transform="translate(-521.832 -234.659)" fill="#302040"/>
        <path id="Path_1394" data-name="Path 1394" d="M536.838,345l-.7-1.138A4.342,4.342,0,0,0,536.838,345Z" transform="translate(-472.102 -297.05)" fill="#302040"/>
        <path id="Path_1395" data-name="Path 1395" d="M528.833,357.294Z" transform="translate(-511.808 -224.303)" fill="#302040"/>
        <path id="Path_1396" data-name="Path 1396" d="M535.809,344.684l-.174-.251Z" transform="translate(-474.827 -293.971)" fill="#302040"/>
        <path id="Path_1397" data-name="Path 1397" d="M542.982,353.638l.334.341A.44.44,0,0,0,542.982,353.638Z" transform="translate(-434.94 -243.997)" fill="#302040"/>
        <path id="Path_1398" data-name="Path 1398" d="M535.861,344.723l-.2-.251Z" transform="translate(-474.681 -293.76)" fill="#302040"/>
        <path id="Path_1399" data-name="Path 1399" d="M534.255,348.29l.893.791A2.45,2.45,0,0,0,534.255,348.29Z" transform="translate(-482.319 -273.031)" fill="#302040"/>
        <path id="Path_1400" data-name="Path 1400" d="M535.3,348.469l.309.244Z" transform="translate(-476.63 -272.06)" fill="#302040"/>
        <path id="Path_1401" data-name="Path 1401" d="M536.56,358.715a.523.523,0,0,0,.283-.482C536.663,358.265,536.534,358.394,536.56,358.715Z" transform="translate(-469.824 -219.05)" fill="#302040"/>
        <path id="Path_1402" data-name="Path 1402" d="M536.151,345.351a10.18,10.18,0,0,1-.611-1.087A9.453,9.453,0,0,0,536.151,345.351Z" transform="translate(-475.343 -294.889)" fill="#302040"/>
        <path id="Path_1403" data-name="Path 1403" d="M535.449,351.48l-.138-.383-.17-.088Z" transform="translate(-477.512 -258.266)" fill="#302040"/>
        <path id="Path_1404" data-name="Path 1404" d="M535.751,351.852l-.61-1c.276,1.646-1.9,1.4.327,4.385.161-.251,2.675.5,3.877,2.346-.154-1.087,2.173.379,2.018-.289-2.025-.971-2.076-2.359-2.379-3.735,1.145.463,1.82,2.379,2.649,2.591l.778-1.183-1.215.373-2.012-2.983.129.335C538.844,355.24,535.847,348.759,535.751,351.852Z" transform="translate(-481.25 -259.139)" fill="#302040"/>
        <path id="Path_1405" data-name="Path 1405" d="M534.856,351.593a3.515,3.515,0,0,0-.315-.881C534.425,350.873,534.6,351.2,534.856,351.593Z" transform="translate(-480.966 -259.882)" fill="#302040"/>
        <path id="Path_1406" data-name="Path 1406" d="M533,350.947a2.829,2.829,0,0,0,.09.662Z" transform="translate(-489.144 -258.607)" fill="#302040"/>
        <path id="Path_1407" data-name="Path 1407" d="M542.222,346.41c-.7-.791-2.977-1.73-1.209.379h1.357Z" transform="translate(-449.204 -288.163)" fill="#302040"/>
        <path id="Path_1408" data-name="Path 1408" d="M532,355.6a.409.409,0,0,0,.334-.2l-.212-.373C531.8,354.77,531.925,355.317,532,355.6Z" transform="translate(-495.04 -236.817)" fill="#302040"/>
        <path id="Path_1409" data-name="Path 1409" d="M535.759,353.117a3.9,3.9,0,0,0-.546-1.221A3.13,3.13,0,0,0,535.759,353.117Z" transform="translate(-477.118 -253.454)" fill="#302040"/>
        <path id="Path_1410" data-name="Path 1410" d="M533.242,356.014a18.183,18.183,0,0,1-2.276-2.051c-.277.193.463,1.459.527,2.07C531.538,355.48,532.059,355.41,533.242,356.014Z" transform="translate(-500.51 -242.232)" fill="#302040"/>
        <path id="Path_1411" data-name="Path 1411" d="M531.009,354.343l-.013-.058Z" transform="translate(-500.013 -240.484)" fill="#302040"/>
        <path id="Path_1412" data-name="Path 1412" d="M619.069,394.576l-.135-.643.347.669,1.151.135a1.5,1.5,0,0,1-.032-.553,2.667,2.667,0,0,0,.347.611l.405.084c-1.325-2.6-1.434-5.214-2.148-6.8-.308-1.324-.173-2.321.321-2.449-.373.225-.45,1.029.688,2.134,1.716.714,5.053,4.082,3.632-.007l-.643.611-2.366-5.973c2.153,1.511,1.176,2.977,2.372,4.854-.726-3.311,5.388,2.076,2.565-2.456,2.083,2.353,5.548,6.288,6.127,5.4-2.848-2.3-1-2.16-3.9-4.732-.875-1.607,1.594.154.148-1.7l.752,1.067c4.494,2.726-.026-3.632-1.087-6.082.778-2.3,2.8-1.344,3.774-2.829,1.4,1.582,5.426,5.748,5.812,5.143-1.569-2.4-1.228-4.378-3.433-7.3-1.9-.4,1.176,2.989,1.164,4.115-2.9-2.565-2.443-2.88-4.539-4.121,1.459.727,1.054-3.452,3.9-1.144l.122.553c2.289.932,8.2,7.747,6.217,2.3l-.707-2.308.65.906c1.414-.669,3.735,2.79,2.938-.8.058.277.379.534.437.8,2.031.977.154-2.81.161-3.928,2.283,2.057,1.826,2.373,3.022,4.237,2.038-.154.116-5.33-1.447-8.853l1.967.688a14.822,14.822,0,0,0,3.067,5.638c.064-.849-.939-1.884.083-1.967,1.132,1.588,2.012,3.215,3.266,5.349,3.407,1.4-4.1-5.561.643-1.736.45-.315-1.119-2.707-2.565-4.565l2.72,1.742c-1.82-2.372-.984-3.285-.656-4.147-.752-1.054-2.533-2.044-2.032-.958-1.446-1.852-1.491-3.247-1.042-3.555,4.147,4.706,2.186-2.977,6.391,3.131.6-3.144,2.854-5.838,2.443-8.885,1.511,1,2.411.373,3.78,3.054,1.543-1.241-1.762-6.853.842-6.783.617.5-.65.611.733,2.179-.611-2.758,3.5.559,3.96-2.006-.186.3.566,1.363.945,1.9-.695-.778-.746-2.186-.99-3.292.566.232.187.823.817,1.337,4.905-.1,1.742-8.544,4.867-10.762-.887.63,1.434,4.1,2.514,5.413l.874-.617c-1.009-1.864-.386-2.379-.848-3.992a5.265,5.265,0,0,1,1.7,1.948c4.314,1.9-2.276-7.946,1.093-7.933l2.919,8.454,2.456,1.755,1.363,3.819c2.1,1.247-.727-3.3,1.356-.939.424.791-.077.842,1,2.16,1.4.444-.051-1.4.019-2.257,2.874,5.94.437,7.818.161,10.087.116.553-.81-1.331-1.2-1.864-.379.591-1.967-.688-1.916.707,1.318,2.424,1.575,1.279,2.083,1.228,1.453,1.852,1.2,1.877,1.074,2.449-2.083-2.353-2.687.772-5.593-1.8-1.292,2.353,5.484,6.018,2.739,6.513l-2.842-2.308c.675,3.041.836,6.107-.887,6.532l.187-.308a7.668,7.668,0,0,0-2.321-2.315c-1.909-.424.032,3.632-2.822,1.331a30.139,30.139,0,0,1,1.44,9.984c-3.343-3.382-.978-4.41-2.353-7.11l-1.093.932c.643-.611-.238-2.224-1.543-4.642-1.524.122.791,3.581.636,5.259-.746-1.048-1.369-1.556-1.819-1.234l1.884,2.52a1.168,1.168,0,0,0-.63-.379l-.412,2.829c1.209.752,2.964,2.848,3.408,2.527-1.318-1.286-1.189-1.864-.739-2.173.939,1.884,1.517.99,2.584,2.308a3.975,3.975,0,0,0-1.672,2.938l-2.031-2.076c-1.273.1-1.093,2.051-2.179,1.852l-.81-1.331c-1.53.122-1.3,2.34-3.954.874,1.247,3.266,1.909,6.288,3.414,9.541,2,3.189-5.529-1.524-3.15,3.337a30.737,30.737,0,0,1-1.684-4.082c-1.022.09,1.421,4.1-1.286,1.228,2.3-.18-2.077-2.353-2.135-3.755a2.787,2.787,0,0,0-.334,3.118c1.08-.939,3.067,4.513,3.093,2.27,1.241,3.266.906,5.259-.939,5.118a5.014,5.014,0,0,0-2.533-2.045l1.254,2.154c-.765.058-.919-3.015-2.449-2.887,1.685,4.063-4.526.637-.006,7-2.713-1.742-.534-3.594-4.076-5.555-1.125-2.719,1.845-1-.411-4.172.052,1.4-2.334-2.334-2.777-2.019l.8,2.449.251-.019c1.112,3.844-1.948,4.089-3.112,5.85,1.17,4.121,3.864,9.232,2.006,10.209-1-2.154-2.726-.6-4.411-4.68-2.025-.958-1.221,1.492-.154,2.81,1.016-.077.579.232,1.652.431.938,1.89.038,2.514-1.17,1.768.257-.019-.058-.276-.431-.8-1.652-.424.932,1.884.926,3.009-2.012-2.076-1.723.418-3.182-.309l1.877,3.774c-1.311-2.411-1.337-.167-3.034-1.993.682,1.9,2.372,4.848,1.1,4.957-.566-1.363-2.031-.964-3.793-3.067-3.047-.875,2.475,7.657-1.331,5.709-.366-.527-1.254-2.134-2.07-2.347.186.842-.546,1.022-.675,1.517l-.045-.071.038.077c-.071.244.045.592.47,1.106,1.157,2.527,2.616,4.873,2.983,7.522,2.077,2.353,2.218.656,1.967-.45l-1.626-2.668c3.343,3.375.456-1.446,1.723-.424,2.88,4.822.141,5.317,1.189,8.872,3.465,2.809,5.394,2.1,6.359.617l-1.768-.977.636-.6-2.777-2.031c1.016-.083,1.029-1.2,1.73-1.536-.65.611-3.665-2.507-2.842-2.3,2.719,1.742-.488-2.205.212-2.539-.5.051-.964.354-1.833-1.254,3.543,1.955,2.289-.193,5.9,2.051-3.459-3.922.964-1.479-1.607-4.912l-.759.058-.99-3.279c3.665,2.5,1.929,4.038,5.285,5.169,1.665-.688-1.871-4.9-1.08-6.069,1.627,2.668,2.495,5.4,1.6,6.03l1.453.726c.88,1.607-.528,2.289-1.228,2.629-1.305-3.542-1.151-.476-3.362-2.263,1.832,2.379,2.154,1.511,2.951,3.967.649-.6.591-.881,2.179-.733-2.751.5,4.938,9.419,1.7,8.833-.116-1.671-3.021-3.118-4.037-4.159a6.444,6.444,0,0,0-.212,2.533l3.021,3.125c.232,2.224-5.94-4.571-4.192-.219,1.5,2.115,1.524-.122,1.652.431.219,3.343-4.764-1.588-8.184-3a32.992,32.992,0,0,1,3.51,5.323c-1.511-2.128-2.707-2.867-3.388-4.77-1.151-.469-.463,1.434-.212,2.539,1.9.411,1.993,3.2,2.816,4.539-.765.058-1.5-2.122-1.691-2.951-.823-.212-3.729-2.784-1.472.4-1.755-2.1-3.5-6.448-3.234-7.593l-.765.065c-.553-1.357-.238-1.1.514-1.17a18.749,18.749,0,0,1-4.4-4.68c.315.251.379.527.688.778.836.218.65-.6-.366-1.652-1.986-3.125-2-1.331-3.427-2.527l-.129,1.061,5.51,10.762c.019,1.768-2.166-.09-3.948-.932l1.833,2.584c-.958.366-2.3.18-4.365-3.3.7.791.636.514.9.495a5.407,5.407,0,0,1-.521-.842l-.315-.456a21.761,21.761,0,0,0-.2,2.5c-1.562-4.654-3.587-4.474-6.924-8.981l-.212,2.54c1.967.688,1.761,2.1,1.948,2.932-2.083-2.366-1.087.932-1.851,1l-.38-.527c-1.138-.482-1.723.4-1.736,1.524.695.791,3.266,5.349,4.9,8.023,1.7.129,1.935,1.562,3.253,3.009-.206-.058-.4.058-.174.386.431.8.945.765,1.64,1.556.077-1.974.861-3.157-1.524-6.892-1.582-1.273.675,1.909-.514,1.17-1.382-2.693-.366-2.784.534-3.414l1.954,1.806-.064-1.8c.534,1.363,2.5,3.311,1.948,4.455,1.7,1.826.521-1.164,1.6-.964l-1.948-2.938c1.132,1.594,2.54.919,3.408,3.658l.475,3.318,1.9,1.543-.714,1.453-.881-1.62c-.289,3.388-4.982-4.918-4.185-.212,2.122,3.748,1.787,4.616,0,4.744.219-1.4-1.819-2.372-3.073-4.513-1.967-.675-.019,2.25.6,3.883-1.64-1.549-2.958-2.842-2.006-3.2-2.893-3.69-.463,1.434-3.606-2.231-2.373,2.147,7.959,13.655,1.228,11.392l-1.132-1.6c-.289,3.388-2.822,2.469-3.542,5.053l-4.494-2.713a14.448,14.448,0,0,0-3.632-5.882c3.838,3.324,3.414,1.4,5.825,2.9a9.865,9.865,0,0,0-2.276-2.07c.45-.315,2.1,1.241,2.1.109-.688-.772-2.083-1.228-2.019-2.077l2.726,1.749c.084-1.967-4.2-6.1-2.1-6,1.524,2.3,3.613,5.748,3.568,6.635.919.013.328,1.884,1.877,2.745-1.813-3.793.624-1.614.045-4.449.238.54.714,1.183.611,1.588l2.61.071c-1.884-1.524-.412-3.047-2.81-5.664-2.552.206-.707,1.466-3.832,1.434.013-1.048-1.614-4.385-3.408-7.2a.474.474,0,0,0,.3.161c-1.948-2.932-2.835-3.42-6.731-8.146,1.936,4.044-.913,1.749-.3,4.5,1.948,2.745,3.3,2.822,3.24,1.749l.54,2.43-.81-1.331-2.932.971c.309-.495-.791-2.109-1.5-3.42-.373.135-1.222-.315-2.134-.816,2.1,2.417,3.5,4.2,3.182,4.378-1.909.591-4.533-.971-7.394-3.356l-.019.308c2.334,2.334,2.745,5.381,4.443,8.332-2.141-2.636-2.038-.958-3.549-1.955a53.85,53.85,0,0,0,8.5,9.123c-1.3-3.542-1.742-3.214-4.507-7.484l-.6-3.877,1.633,2.681c1.646.418-.225-3.35,2.3-.193,1.305,2.418-.412,1.71.906,4.128l1.453.72c1.626,3.8-2.9-2.572-2.225.469,2.591,2.314.058.27,1.054,2.43,1.9,1.536,1.3-2.34,4.687,2.43,1.061,2.437-6.262-3.7-3.317,1.389l-.38-.534c-1.588.328.142,3.228,1.067,5.182-1.678-1.067-.636,1.524-1.009,2.1l-1.067-1.318-.27,1.144c-1.633-2.668.9-.636,1.228-1.491l-2.083-2.372c3.1,2.3-.051-2.475-1.234-5.034.938,2.771-2.765,1.279.977,6.191l-2.527-2.038.5,1.08c-1.9-1.543-3.9-4.745-3.639-5.882a5.989,5.989,0,0,1,1.331,1.3c-.566-1.363-1.826-3.5-.547-3.619l.624,1.646c1.157-.656,1.3-2.346-.334-5.027a8.047,8.047,0,0,0-5.169,2.392c4.14,5.825,6.21,9.3,10.222,14.587-.135,1.691-.8,3.427-3.138,2.212l-.758-1.067c-.817-.206-.945.366-.765,1.2-1.517-1.01-1.955-2.932-2.835-3.42l.1,2.79c-1.832-2.379-.733-3.3-.347-3.9a2.017,2.017,0,0,0,.5,1.087c1.4.444-.72-4.43,2.308-1.305-.187-.823,1.434,2.964,2.584,2.314,1.71.7-.546-2.482-1.312-3.542-1.067-1.324-2.533-.919-3.472-2.8-.379.592.8,2.45-.906,1.742.379-.591-1.106-3.832.855-2.019-1-3.292-6.217-9.315-6.982-9.258,1.7,1.832.084,3.922,3.51,5.317,1.44,2.983.347,3.915.836,6.114l-.373-.527-.463,1.427a12.951,12.951,0,0,0-1.684-2.938l1.536,4.635c-1.176-3-1.826-1.254-3.035-2,1.511,2.122,2.186,4.025,3.652,4.751,1.768.984-.565-1.363-.173-1.941l1.871,3.774-.315-.257,1.691,2.951c-1.151.643-4.526-6.378-3.722-2.784l3.079,3.388c-1.922.714-7.11-1.672-6.821.823a32.157,32.157,0,0,0-5.876-7.156c.958.232,1.768-.649,2.141-1.511.636.514,2.63,4.841,1.292,4.654,5.111,5.491-1.1-4.95,3.813.829,3.491.553-3.311-6.75,1.061-4.578-2.134-2.629-.624-1.633-2.443-4.005-3.973-3.883-1.928,1.832-4.146,1.17a3.728,3.728,0,0,0-.559-1.35c-1.337-.186-1.157.643-.849,2.019l.315.257c1.241,3.266-2.147-1.5-3.607-2.231.129.553-1.208.379.489,2.205l-2.97-1.717,2.449,2.874c-.38.6-2.083-1.228-1.093.939l2.134,2.623,2.051-.161c.051,1.4,1.877,2.649,1.614,3.793-1.556-3.523-1.768-.977-3.851-3.33l.688,1.909-.443-.81c-1.524-1,.308,1.376-.457,1.434,1.774.99,3.665,2.514,2.861.052a11.988,11.988,0,0,1,.784,4.7c.347,1.562-1.685-.109-2.449.026.135-1.871-6.892-7.625-3.337-7.406.38.534.129.553-.193.3,3.015,3.112,1.028-1.2.411-2.835-1.7-1.832-1.639-2.675-3.292-3.105,1.279,1.022,2.893,4.822.855,3.851l-3.266-4.211-1.466.392-.058-.276c-2.591-2.315-.72,1.453-2.745.5.688,1.909-2.315,2.424,2.115,6-2.784-2.025-.662,1.73-.926,2.88l2.282.939c1.369,3.813.109,1.659,3.125,7.04a17.674,17.674,0,0,1-2.777-3.144c-1.6.958-4.6,1.479-2.655,5.535-1.157.656-5.31-4.063-5.156-.99.187.823,3.414,3.645,1.5,3.24-.321-.257-1.62-3.787-2.391-2.6,1.871,3.774-3.189-.309-1.884,3.227-1.453-.72-1.974.438-3.857-2.211a1.807,1.807,0,0,0,1.17-2.906c1.132,1.6,1.775.99,2.148,2.642,2.777.881-.5-2.205,1.665-1.813-.752-1.061-2.848-2.308-2.34-1.221-2.829-3.407.791-3.427-3.568-6.725-1.408.675,4.128,8.081.142,5.317-1.305-2.411.778-1.177-1.672-5.188l-1.961-.688,1.433,2.964-.379-.527c-4.05-1.916,1.549,4.642,1.646,7.438,2.719,1.742,4.719,6.069,6.494,7.046-.521,1.164-1.543,1.247-4.365-2.173-.662-4.141-2.9-3.69-4.2-8.351-1.253-1.022-3.768-5.3-4.982-4.931.99,3.285,2.655,2.6,2.571,4.565a4.9,4.9,0,0,1-1.009-1.041c1,2.167-1.074-.193-.019,2.237l-.431-.8c-2.411-1.492,1.177,2.983-1.292,1.221,2.34,2.34,1.318,2.417,2.25,4.307,1.4.457,4.738,3.819,5.773,2.63-1.511-2.128-2.52-3.17-2.829-4.545l-.578.893a16.1,16.1,0,0,0-.579-1.627l1.607.418c.231,2.224,2.443,4.005,3.761,6.422-1.594-.154-.264,1.151-1.35.945-2.379-2.983-5.837-3.639-8.4-4.706.25-.013.386-.251.559-.27-.8-2.456-2.533-2.038-3.221-2.822l.681,1.916a2.336,2.336,0,0,0-1.067-1.324c-.27,1.144,2.186,4.025,1.922,5.169-1.4-1.575-2.823-4.533-3.967-5.015-1.318-1.286-4.918-4.648-4.693-2.424a2.351,2.351,0,0,1,.425,1.73.992.992,0,0,0-.116-.354l-2.09-1.247c-1.749-3.208,2.167.405.411-2.816l-2.121-2.668c.418-.36.051-1.967-.81-3.549-1.016.09-.578.887-.849,2.032a9.29,9.29,0,0,1-2.057-3.472l1.131,1.588c2.655,1.459-.8-3.581.669-3.98.251-.019.309.257.688.784-1.241-3.266,2.495-.475.56-4.532l.874,1.614c-.354-1.594-1.37-5.1-2.321-8.531l-.842-1.029c-.624-.508-.18-.823.392-.6l.013.019c-.476-1.71-.887-3.3-1.157-4.532a3.462,3.462,0,0,0-1.607-.874c.817,1.35-1.022,1.215,1.37,3.825-1.832-1.254-.65,1.742-1.852.99,2.083,1.234,1.685,2.938,2.816,4.539-1.633-1.549-.83.906-2.668-1.472-.617-.5,1.582,1.273.714-.334-1.119-2.713-2.79-.887-3.658-3.626.289,2.495-1.678,2.938-1.009,5.966l1.395.444c-.765.064-1.485,1.524-2.495.476.142-.572.579-.887.656-1.729-2.135-2.636-1.093.926-2.475-.643l2.244,5.426.7-.334c.945,1.89-1.858.984-3.073,1.363-2.43-4.005,1.292-1.221,1.061-3.44-.43-1.935-3.279-3.105-3.33-4.507-.861-.688-1.209-.238-.675.836l-.8-.431c-2.1-3.735-.193-4.1-1.627-7.618a10.292,10.292,0,0,0,.733,1.241c1.71.7,2.353.09,2.3-1.312-1.189-.746-.752.064-.636.611-.694-.784-.36-1.639-.861-2.726-1.4-.45-1.7-1.832-2.527-2.044-.244-1.106.264-1.138,1.028-1.2,1.267,1.016,1.19,1.864,2.572,3.427-.3-1.382,3.105,2.282,2.3-.174-1.53.122-2.642-3.716-3.2-5.079l-.257.019q-1.871-3.211.585-.874c.244,1.1-.585.874,1.119,2.713a1.561,1.561,0,0,0,.206-1.427l.874,1.607.971-1.479c-1.189-1.864-2.822-4.539-4.706-7.181,1.582,1.279.958-.36.765-1.2l.443.817c1.775.971,2.057-1.286.92-2.88,1.517,1,4.983,11.939,6.738,8.152,1.093-.926-3.266-5.349-4-7.522a4.622,4.622,0,0,0,.688.778c.765-.051-.681-1.909-.932-3.009-.881-.488-1.331-.173-.893.63-1.511-2.115,1.144-.65.219-2.533,2.064,3.484,1.9.405,2.835,2.3,2.6,1.2,1.614-2.1.238-4.783,3.851,3.33.72-1.459,3.253-.54-.257.019-.071.842-.643.617,1.421,2.945,2.16.379,3.086,3.388-.116-.546-1.067-1.318-.945-.759a4.389,4.389,0,0,0,1.44,2.97l2.649,1.453.2.842,3.786,1.929a7.359,7.359,0,0,0-1.318-1.286c2.61.064,2.957-3.041,4.616-3.735-5.471-7.137.817-5.671-1.62-10.814a45.714,45.714,0,0,0,5.465,7.156c0,.489,1.819,3.69.8,3.562-1-1.041-2.72-1.749-3.343-3.375-.842,2.025,2.713,2.867,4.4,5.812,1.106-2.044-1.266-6.9-1.569-9.406l.7.8-.482-2.205c-1.028.077-4.237-3.87-2.269-3.2l.057.283c1.833,1.254,1.228-1.5,2.179-1.858l-1.376-2.694c.964-.354,4.487,3.851,6.821,6.178,1.414-.662-.778-4.687-1.652-7.432,1.9,1.53,4.005.527,4.931,3.53-.29-2.495-8.66-12.2-2.34-8.217l1.009,2.167c1.414-1.8.951-7.368,3.292-6.159,4.641,6.918,7.528,4.719,13.012,10.73-1.273-1.357-1.016-2.372-1.55-3.215.746.624,1.575,1.138.759-.366-1.717-.7-4.9-6.892-4.1-3.3-2.893-4.828-4.829-8.878-3.221-9.849l2.135,2.636-1.781.135c1.7,1.832,1,2.173,1.5,3.253,3.317-.263,4.777,6.346,6.641,4.23-1.189-1.864-.745-1.054-.745-2.186-.186.3,1.254,2.141,1.7,1.832l-1.312-2.424c4.34,3.742,1.1,3.858,4.269,6.4.862,2.739.328,5.015,3.356,8.126,2.353.1-3.941-7.252-1.273-6.9l1.318,1.292c-.3-1.369-2.115-3.742-3-5.355.7.791,1.318,1.292,1.832,1.26-1.928-4.05-1.922-5.175-4.172-9.476.212,4.449-3.87-1.093-3.974,3.112-.565-1.356.283-3.388-2.616-7.078l2.147,2.636c-.431-1.935-.848-3.851.733-3.7l.682,1.909c-.347-2.777,5.2,2.385,2.514-2.72-.515.032-.714.328-.579.887-.373-1.652.592-2.006,1.6-2.1l-2.237-5.413c1.061,1.3,1.974.681,3.279,3.092,2.6,1.2-.161-3.08-.141-4.179,3.272,1.955.167,1.935,3.053,5.632,2.353.084,2.887-2.192,1.71-5.175a4.019,4.019,0,0,1-1.729-1.286c.727.791,1.093.122,1.421-.1l-1.2-1.871a5.62,5.62,0,0,1,2.848,3.427c.752-.071-1.369-3.812,1.157-1.781.862,2.732-1.665,1.819-1.048,3.453.347-3.105,6.017,3.729,6.429-.232.7.791,1.633,2.674,2.077,2.346.463-1.434-2.636-3.71-3.9-5.85.122,1.678-1.087.932-3.291-.849l-.939-1.549c.624.688,1.125.341,1.839.913l-2.205-2.906c2.514,3.163,5.233,4.9,4.86,3.247-2.462-1.762-2.205-1.775-5.291-5.182-1.935-4.044,3.671,2.514,1.672-1.813.752,1.061.553,2.482,1.89,2.662.7-.347-1.382-2.707-1.627-3.8,1.7,2.951,3.4,4.784,5.458,8.249-.771,1.183-.443.315-.533,2.282l2.674,1.485c-.534,1.151,1.813,3.491,2.559,4.545,3.678,1.4-2.115-4.873-.591-5-1-2.167-1.215.373-2.019-2.09,1.215-.366-1.189-1.864-1.106-3.825l.817,1.331c1.582,1.286.321-.868.463-1.427-.251-1.112-7.889-8.634-6.4-10.151a18.9,18.9,0,0,0,1.119,1.575L609.477,397a11.192,11.192,0,0,1,7.111-2.5c3.96,3.883,1.53,4.635,3.234,6.455l-1.588-.148c-1.44-1.845,1.363-2.07-2.057-4.6-.469,2.559-2.874,1.067-1.266,5.986,3.979,3.9,1.3-2.34,4.969.174-.63.051-.572.8-.4,1.672l4.333-.566-.624-1.221a6.633,6.633,0,0,1-2.037.013c1.208-.373.032-3.369-2.488-6.532l-.257.019-.469-1.247Zm59.3-47.755a13.856,13.856,0,0,0,.765,1.2A4.673,4.673,0,0,1,678.371,346.821Zm-68.392,72.861c1.582-.54,3.5-.694,4.97-1.279-7.181-4.436-12.511-7.889-8.917-10.647l-.135-.637a1.739,1.739,0,0,0-2.321,1.235c1.2,2.681,5.9,12.305,6.513,13.006,1.633,1.543.392-.591,1.215-.386Zm-9.387-9.612c-1.26-.128.032,1.112.932,2.43l.341-1.061A5.278,5.278,0,0,1,600.592,410.07Zm1.994,3.626a.384.384,0,0,1,.386.1Zm14.6-9.438-.007.135.727-.122A.6.6,0,0,0,617.186,404.259Zm-3.877-1.865,1.7,2.385.675-.122A14.284,14.284,0,0,0,613.309,402.394Zm-10.582-3.716c1.948,2.938,1.112,3.838,3.626,7a2.085,2.085,0,0,0,1.491,1.067l1.009-.4a8.069,8.069,0,0,1-.906-1.414c-.6-.154-1.421-.778-2.893-2.784,4.159,3.581-1.813-3.5-.161-3.073C603.318,396.672,602.238,397.6,602.727,398.678Zm-52.6,57.116-1.723-1.672-.733-1.993c1.53-.129,6.011,3.716,3.7-.855a30.024,30.024,0,0,1,4.725,4.005,2.105,2.105,0,0,1-1-.09C557.312,462.847,548.909,450.291,550.13,455.794Zm15.687-3.716a3.408,3.408,0,0,0,.444.817c-2.565-7.516-2.147-10.647-.8-11.386a16.752,16.752,0,0,0-5.87-3.5l-1.7-2.945,1.954,1.8-1.176-2.983c-1.652-1.562-1.967-.688-3.484-1.685.373.521,1.536,4.635,2.488,6.532l2.527.913c-.874-.489-1.787,1.266-1.8,2.392,1.061,1.3,3.671,2.507,1.472-.405,1.691,1.826.6,2.758,3.009,4.243.868,2.739-1.864,2.115-3.259,1.665l-2.777-3.144c-1.71-.707,2.764,4.269.424,3.06.463-1.44-3.092-3.414-2.514-4.294-1.26-1.016-2.829-3.42-3.408-2.527,2.887,4.815-3.034-2.006-.533,2.276-1.517-1-1.684-2.938-2.964-2.842.926,3.015,2.314,4.578,4.834,7.741,1.582.161-2.379-4.854-1.048-4.68l3,6.494c.881.54,1.138.463,1.125.116a6.87,6.87,0,0,0,1.074,2.79l.984,1.852c.823-.63,1.594-1.138,2.816.077l1.138,1.6c1.427,1.157.99-.315.283-1.594.585-.752-.443-3.446,1.337-1.62l.861,1.607A4.619,4.619,0,0,1,565.817,452.078Zm31.651-20.367c-5.1-5.092-9.727-9.5-11.412-6.48l-.128-.54c-4.115-2.437,1.356,6.616-3.356,4.012-.977-2.7-.868-2.475-3.992-7.921l.5,2.224c-2.27-3.2-1.768-.99-2.475-.649l-2.45-4.012c1.209.746,2.418.373,1.717-.424.129.559,4.938,3.536,4.828,1.871-2.083-2.366-2.867-.064-5.432-4.616.739,2.179-1.331-.174-1.286,1.215-.746-2.18-2.578-3.44-3.574-5.593l-.392,1.716c-.7-.784.084-3.1-3.266-5.349.623,1.633-1.851.983.283,3.613l-.682-.778c-1.286.1,2.694,3.992.469,3.324,1.08,1.324,2.013,2.076,2.148,1.511-.18-.836-1.62-2.668-1.3-3.542,1.961,1.819-.965.36,2.327,3.459,1.633,1.549.4-2.835,3.163,1.427l-1.273.109c2.147,2.63,1.434,2.964,3.2,5.06.3,1.376-2.6-1.189-1.228,1.5,1.2,1.864,4.16,4.712,2.192,4.025-3.844-3.33-5.143-.99-5.413.161l.758,2.179c1.382,1.569,1.016-1.2,2.34,1.215l-.463,1.44-.759-1.067c-.508.038.051,1.4.232,2.218-1.254-2.141.077-1.961-2.314-4.578-.9-.154-1.806-1.112-1.8-.232a2.326,2.326,0,0,0-.534-.977c-1.909-.411,1.62,3.793,2.115,4.873,1.993,4.327,3.658,2.507,5.863,5.419l-1.5,3.755a10.566,10.566,0,0,0-2.005-3.2c-1.71-.707-1.762-2.1-2.6-1.189,3.151,3.671.733,3.3,1.845,6-1.569-1.266-1.89-1.524-1.241-2.134-2.083-2.353-2.224-.662-2.733-.611.309.752.277,1.369.521,2.07a7.249,7.249,0,0,1,2.662,4.115l.392.54c1.511-.141,5.194,1.26,3.761-1.717l.816,1.344c2.848,1.164-1.151-6.358,3.137-2.218,1.446,1.845.572.225,2.706,2.861l-.861-2.726.81,1.331.906-1.755.373.521-3.253-7.2a9.632,9.632,0,0,1-1.742-2.482c-.238-.746-.148-.971.129-.945l-.013-.019.013.019c.617.045,2.205,1.5,3.176,1.813l-1.073,1.356c1.5,2.025,3.266,3.947,5.027,4.764-.206.289.932,1.89,1.44,1.852-.373-.534-.167-1.942-1.749-3.227.649-1.729,6.854,1.7,5.7-3.536.476,3.324,3.215,1.7,2.379,3.735,3.6,2.225-1.62-3.8-.154-4.2,1.009,1.048-.7.334.868,2.732,2.8-.218-1.138-7.47,1.357-7.953l2.064,2.353Zm.913-5.812.322-1.665c-.071-.013-.1.013-.167.013l-.611-2.771c-1.389-.437-3.986-2.758-4.153-4.7.752,1.054,2.019,2.076,2.205,2.906,1.768.977,4.179,1.344.842-2.032,1.742,4.352-4.1-4.442-2.848-1.17-1.5-2.765-.154-2.064-.591-3.491a10.408,10.408,0,0,0,5.3,4.8c-.187-.836,1.08-.932.778-2.308-2.025-2.083-2.642-3.716-3.915-3.62-.187-.829-.116-1.665,1.35-.945a2.946,2.946,0,0,0,.675,1.909c2.025,1.774,2.333,1.369,3.278,2.064l.212-.778a6.547,6.547,0,0,1-.758-.669l-1.061-2.43c.109,1.672-1.2-.746-2.269-2.064,2.134,2.63.765-.064.958-.36l-2.848-2.3c-.868-1.607,2.61,1.2.206-1.414-2.1-.109-2.16.739-2.559,2.449l2.205,1.787c.038,2.514-3.786-3.06-5.066-1.832,1.048,2.424-1.942,1.832,1.273,5.78-.817-1.337-3.729-2.8-2.733-.63,2.45,4.012,1.286,5.793,3.112,7.034.457-.309-.6-2.745,1.659-.694l-.2,1.427,2.154,1.5C594.266,421.238,595.873,423.128,598.381,425.9Zm36.5,6.86.071.026-.038.019Z" transform="translate(-524.773 -335.873)" fill="#302040"/>
        <path id="Path_1413" data-name="Path 1413" d="M529.282,358.06c.5,1.08-.206,1.421,1.5,3.247C529.019,359.2,531.552,360.124,529.282,358.06Z" transform="translate(-509.318 -219.99)" fill="#302040"/>
        <path id="Path_1414" data-name="Path 1414" d="M528.908,357.828c.379.54,1.067,1.318.874,1.614l.27-1.138Z" transform="translate(-511.349 -221.249)" fill="#302040"/>
        <path id="Path_1415" data-name="Path 1415" d="M529.965,359.01c.939,1.884,1.433,2.964.733,3.3-4.475-4.97-.231-2.224-3.947-7.246-1.46.392,1.929,5.163,1.408,6.326C530.369,363.177,533.166,362.952,529.965,359.01Z" transform="translate(-525.064 -236.261)" fill="#302040"/>
        <path id="Path_1416" data-name="Path 1416" d="M526.177,354.6l.37,1.658.307.251-.37-1.651Z" transform="translate(-526.177 -238.76)" fill="#302040"/>
        <path id="Path_1417" data-name="Path 1417" d="M534.1,360.655c1.382,1.569.437-.321.315-.874C534.162,359.806,533.6,359.575,534.1,360.655Z" transform="translate(-484.265 -210.672)" fill="#302040"/>
        <path id="Path_1418" data-name="Path 1418" d="M552.279,349.659l3.247-5.291A36.369,36.369,0,0,0,552.279,349.659Z" transform="translate(-384.466 -294.324)" fill="#302040"/>
        <path id="Path_1419" data-name="Path 1419" d="M534.912,356.347c.039,2.52,1.787,5.741,1.138,7.471,4.308,1.9-2.038-6.847,2.077-4.648Z" transform="translate(-478.753 -229.29)" fill="#302040"/>
        <path id="Path_1420" data-name="Path 1420" d="M539.894,363.806c-2.707-2.861-1.993-4.32-4.012-6.4-.206,1.421,2.013,3.2,1.048,3.555Z" transform="translate(-473.558 -223.556)" fill="#302040"/>
        <path id="Path_1421" data-name="Path 1421" d="M529.987,352.9l-.936-1.884.182.822Z" transform="translate(-510.568 -258.229)" fill="#302040"/>
        <path id="Path_1422" data-name="Path 1422" d="M537.011,357.269l.433.8,1.4.458Z" transform="translate(-467.359 -224.286)" fill="#302040"/>
        <path id="Path_1423" data-name="Path 1423" d="M537.522,358.2l-.444-.81Z" transform="translate(-466.993 -223.611)" fill="#302040"/>
        <path id="Path_1424" data-name="Path 1424" d="M529.352,350.4l-1.086-.195.879,1.614Z" transform="translate(-514.831 -262.624)" fill="#302040"/>
        <path id="Path_1425" data-name="Path 1425" d="M531.278,352.147l.308,1.369C531.529,353.246,533.232,353.947,531.278,352.147Z" transform="translate(-498.482 -252.092)" fill="#302040"/>
        <path id="Path_1426" data-name="Path 1426" d="M538.328,358.6l-.365-1.657-.313-.251.37,1.652Z" transform="translate(-463.886 -227.404)" fill="#302040"/>
        <path id="Path_1427" data-name="Path 1427" d="M532.483,352.823c-2.263-2.051.456-1.434-1.942-2.925C530.22,350.772,531.48,351.782,532.483,352.823Z" transform="translate(-502.76 -264.302)" fill="#302040"/>
        <path id="Path_1428" data-name="Path 1428" d="M533.984,352.349c.083-.064.1-.225-.032-.546A1.947,1.947,0,0,0,533.984,352.349Z" transform="translate(-484.009 -253.959)" fill="#302040"/>
        <path id="Path_1429" data-name="Path 1429" d="M534.764,351.941c-.258.212-1.254-.463-.881.354C535.085,353.085,534.873,352.59,534.764,351.941Z" transform="translate(-484.789 -253.551)" fill="#302040"/>
        <path id="Path_1430" data-name="Path 1430" d="M535.118,352.166l-.379.032c-.707-1.35-.681-1.087-.128.019-.187.283.437,1.009.823,1.536l.591,1.029-.489-1.01C535.941,353.471,536.083,353.163,535.118,352.166Z" transform="translate(-482.611 -256.778)" fill="#302040"/>
        <path id="Path_1431" data-name="Path 1431" d="M544.453,358c-1.588-.148-2.16-.379-3.607-2.231-1.3.1,1.4,3.111,1.5,4.25C542.994,358.89,543.868,359.564,544.453,358Z" transform="translate(-448.447 -232.449)" fill="#302040"/>
        <path id="Path_1432" data-name="Path 1432" d="M540.956,356.426a2.044,2.044,0,0,0-.205.411C540.93,356.773,540.968,356.625,540.956,356.426Z" transform="translate(-447.058 -228.861)" fill="#302040"/>
        <path id="Path_1433" data-name="Path 1433" d="M532.74,351.511l-1.751-3.221.119.553Z" transform="translate(-500.055 -273.031)" fill="#302040"/>
        <path id="Path_1434" data-name="Path 1434" d="M542.346,356.256c-.257.019-.45.315-1.087-.2C542.706,357.909,542.6,356.231,542.346,356.256Z" transform="translate(-444.295 -230.864)" fill="#302040"/>
        <path id="Path_1435" data-name="Path 1435" d="M537.695,351.376c-1.01-1.035-1.022.09-1.595-.148C536.615,351.19,539.636,354.308,537.695,351.376Z" transform="translate(-472.303 -258.695)" fill="#302040"/>
        <path id="Path_1436" data-name="Path 1436" d="M543.082,356.788a7.609,7.609,0,0,1-2.636-2.584C540.941,355.284,543.269,358.743,543.082,356.788Z" transform="translate(-448.708 -240.924)" fill="#302040"/>
        <path id="Path_1437" data-name="Path 1437" d="M537.166,351.275l-.627-.509.364,1.651Z" transform="translate(-469.925 -259.586)" fill="#302040"/>
        <path id="Path_1438" data-name="Path 1438" d="M532.872,346.962c1.112,2.713,5.362,4.333,5.728,7.111,3.35,1.029-2.642-2.964-1.26-3.517C536.1,350.357,533.528,347.882,532.872,346.962Z" transform="translate(-489.828 -280.241)" fill="#302040"/>
        <path id="Path_1439" data-name="Path 1439" d="M533.567,347.575a.631.631,0,0,0,.463-.064A1.376,1.376,0,0,0,533.567,347.575Z" transform="translate(-486.055 -277.261)" fill="#302040"/>
        <path id="Path_1440" data-name="Path 1440" d="M536.788,348.436a6.154,6.154,0,0,0,.386.919A6.6,6.6,0,0,0,536.788,348.436Z" transform="translate(-468.568 -272.239)" fill="#302040"/>
        <path id="Path_1441" data-name="Path 1441" d="M534.925,349.378l1.678,4.076c-1.112-2.713.675-3.973-2.1-7.117-1.087-.206-1.035,1.2-.154,2.816Z" transform="translate(-485.381 -283.744)" fill="#302040"/>
        <path id="Path_1442" data-name="Path 1442" d="M543.358,354.765l.624,1.633.855-.071C544.284,355.967,542.6,353.37,543.358,354.765Z" transform="translate(-433.947 -240.096)" fill="#302040"/>
        <path id="Path_1443" data-name="Path 1443" d="M543.586,354.66l-.161.019C543.509,354.744,543.573,354.75,543.586,354.66Z" transform="translate(-432.535 -238.448)" fill="#302040"/>
        <path id="Path_1444" data-name="Path 1444" d="M537.19,348.924c-.514.038-.7.341-.521,1.157C537.3,350.6,538.572,350.493,537.19,348.924Z" transform="translate(-469.574 -269.589)" fill="#302040"/>
        <path id="Path_1445" data-name="Path 1445" d="M543.284,353.3l-.257,1.149.584-.885Z" transform="translate(-434.699 -245.849)" fill="#302040"/>
        <path id="Path_1446" data-name="Path 1446" d="M544.6,355.111l.628.509-.365-1.645-.628-.509Z" transform="translate(-428.141 -244.932)" fill="#302040"/>
        <path id="Path_1447" data-name="Path 1447" d="M535.6,344.4c-.771.052,1.247,3.266,1.877,3.774l.836-.9c-2.334-2.346-.2.289-1.273.1Z" transform="translate(-475.978 -294.14)" fill="#302040"/>
        <path id="Path_1448" data-name="Path 1448" d="M552.785,363.344c1.2,1.871-.643,1.736-2.031.167-.443-.81-.437-1.942-1.633-2.674l2.623,4.835c-3.221-1.7-3.7-6.153-4.378-8.068-1.543.379.392,3.388-.8,4.34a7.739,7.739,0,0,1,2.649,1.684c2.462,2.893.3,2.5-.289,3.375a6.33,6.33,0,0,1,2.732,3.626,1.593,1.593,0,0,0,.232.566l.225.521.083-.083a12.529,12.529,0,0,0,1.132,1.2c-.051-1.389,2.482.643,2.932.328-4.359-4.41.527-2.282-.154-4.192l.225-.977.219-.2a6.253,6.253,0,0,1,1.382,2.424c-.482-1.183.765-1.652-.591-3.105l2.167-1.9a5.305,5.305,0,0,1,.829.63,3.3,3.3,0,0,0-.573-.862l9.419-8.293c-.784.019-2.1-.733-3.028-.849-1.871-3.774-1.273.1-3.53-3.079-.565-1.357.206-1.414,1.093-.926-1.138-1.6-2.655-2.6-4.1-4.442-2.79-.887,2.99,6.493.887,6.378-1.44-1.852-2.385-3.742-2.964-2.848l-.122-.553c.424,3.06-4.352-3.285-1.035,2.327l-2.141-2.636c1.061,2.437-.032,3.369-.36,4.243l-.379-.534c.733,4.43-.456,1.433-1.376,4.307l-1.614-3.787c-1.716-.707.862,2.733.1,2.791-.38-.534-2.07-2.347-2.006-3.2l1.466,6.609C551.139,362.913,551.782,362.3,552.785,363.344Z" transform="translate(-415.472 -278.371)" fill="#302040"/>
        <path id="Path_1449" data-name="Path 1449" d="M547.008,349.592a.418.418,0,0,0-.521.257A1.163,1.163,0,0,0,547.008,349.592Z" transform="translate(-415.911 -266.021)" fill="#302040"/>
        <path id="Path_1450" data-name="Path 1450" d="M550.742,348.673l-.656.585A.6.6,0,0,0,550.742,348.673Z" transform="translate(-396.372 -270.952)" fill="#302040"/>
        <path id="Path_1451" data-name="Path 1451" d="M546.771,351.923c1.537,1.009,1.26,2.141,2.019,3.208l1.434-1.266c-.836-1-1.62-2.257-2.411-3.144Z" transform="translate(-414.37 -259.833)" fill="#302040"/>
        <path id="Path_1452" data-name="Path 1452" d="M549.3,353.334a11.516,11.516,0,0,1-1.2-2.231l-.791.688A4.348,4.348,0,0,0,549.3,353.334Z" transform="translate(-411.454 -257.76)" fill="#302040"/>
        <path id="Path_1453" data-name="Path 1453" d="M540.738,344.3l.188-.307-.245-1.1Z" transform="translate(-447.434 -302.329)" fill="#302040"/>
        <path id="Path_1454" data-name="Path 1454" d="M542.916,343.671c-1.575-1.266-1.208.379-1.08.932C542.472,343.986,542.653,344.809,542.916,343.671Z" transform="translate(-441.869 -300.648)" fill="#302040"/>
        <path id="Path_1455" data-name="Path 1455" d="M539.968,342.239l-.056-1.406-.307-.251Z" transform="translate(-453.277 -314.879)" fill="#302040"/>
        <path id="Path_1456" data-name="Path 1456" d="M549.65,346.8l.186-.437A.446.446,0,0,0,549.65,346.8Z" transform="translate(-398.752 -283.51)" fill="#302040"/>
        <path id="Path_1457" data-name="Path 1457" d="M549.148,354.983c3.992,1.639.984,3.292,4.584,6.641l-.174-1.948.752,1.061.778-1.183a21.859,21.859,0,0,1-3.343-3.375c1.974-.444,2.218,1.787,5.124,3.227l1.28-1.607.321.643c.1-.141-.032-.418-.232-.752l4.307-5.458c-.238-2.218-3.221-2.816-4.725-6.062-1.093.913-4.32.347-1.434,4.037a6.116,6.116,0,0,0-1.7-1.826l1.813,3.5,1.395.444c1.807,3.491-.81,4.545-2.706,3.022.347-1.993-3.2-5.066.051-4.487-.829-.849-2.462-2.212-2.507-3.022C551.674,350.476,548.589,350.251,549.148,354.983Z" transform="translate(-401.831 -284.547)" fill="#302040"/>
        <path id="Path_1458" data-name="Path 1458" d="M551.869,344.79l.257.341C552.023,344.925,551.92,344.784,551.869,344.79Z" transform="translate(-386.692 -292.033)" fill="#302040"/>
        <path id="Path_1459" data-name="Path 1459" d="M551.712,344.8l1.98,4.32,1.234-1.5-1.948-2.565c.392.733.919,2.418-.084,1.614Z" transform="translate(-387.545 -291.963)" fill="#302040"/>
        <path id="Path_1460" data-name="Path 1460" d="M556.129,351.988c-.122-1.678-2.572-4.565-4.089-5.561-.431-1.929,2.964,2.841.887-.643-1.762-2.1-1.588-.148-1.466.405Z" transform="translate(-389.293 -291.792)" fill="#302040"/>
        <path id="Path_1461" data-name="Path 1461" d="M552.4,347.6l-.791-1.388-.792.113Z" transform="translate(-392.407 -284.335)" fill="#302040"/>
        <path id="Path_1462" data-name="Path 1462" d="M552.074,348.206l.791-.1c-.784-.868-1.543-1.716-2.135-2.263Z" transform="translate(-392.876 -286.333)" fill="#302040"/>
        <path id="Path_1463" data-name="Path 1463" d="M551.382,346.289a2.235,2.235,0,0,0,1.144-.167Z" transform="translate(-389.336 -284.802)" fill="#302040"/>
        <path id="Path_1464" data-name="Path 1464" d="M551.194,346.108l.334.373.875-.116A9.481,9.481,0,0,1,551.194,346.108Z" transform="translate(-390.357 -284.878)" fill="#302040"/>
        <path id="Path_1465" data-name="Path 1465" d="M551.062,346.333c1.774,1.98,3.652,4.05,3.935,2.861l-2.752-3.028Z" transform="translate(-391.073 -284.563)" fill="#302040"/>
        <path id="Path_1466" data-name="Path 1466" d="M541.385,342.323l-.365-1.651-.327-.264.365,1.651Z" transform="translate(-447.36 -315.822)" fill="#302040"/>
        <path id="Path_1467" data-name="Path 1467" d="M542.058,341.762a10.821,10.821,0,0,0-.572-1.427A3.506,3.506,0,0,0,542.058,341.762Z" transform="translate(-443.062 -316.22)" fill="#302040"/>
        <path id="Path_1468" data-name="Path 1468" d="M541.232,340.83c2.4,1.485,1.286,3.523,3.33,3.362,1.7,1.826,3.137,4.8,1.742,4.352-1.447-1.845-.367-1.652-2.263-3.182,1.318,2.424-.007,1.132,2.379,3.729.726,2.263,2.244,4.256,3.247,6.41-.167-1.877,3.87-.508,2.031-4.867-2.128-3.748-6.165-7.921-10.068-12.646C540.627,336.947,538.7,337.66,541.232,340.83Z" transform="translate(-451.243 -331.386)" fill="#302040"/>
        <path id="Path_1469" data-name="Path 1469" d="M539.747,337.461c-.514.032-.456.3-.328.862C540.8,339.891,539.548,337.75,539.747,337.461Z" transform="translate(-454.76 -331.823)" fill="#302040"/>
        <path id="Path_1470" data-name="Path 1470" d="M546.7,344.65c-.495-.72-.6-2.038-1.684-3.092l-.187,1.575C545.135,343.075,545.886,343.834,546.7,344.65Z" transform="translate(-424.896 -309.58)" fill="#302040"/>
        <path id="Path_1471" data-name="Path 1471" d="M544.861,342.485l.09-.681C544.81,341.829,544.765,342.015,544.861,342.485Z" transform="translate(-425.016 -308.25)" fill="#302040"/>
        <path id="Path_1472" data-name="Path 1472" d="M545.509,342.425l-.386-.386A1.169,1.169,0,0,0,545.509,342.425Z" transform="translate(-423.317 -306.969)" fill="#302040"/>
        <path id="Path_1473" data-name="Path 1473" d="M551.885,346.373c1.061,1.3.817.206.7-.347C552.329,346.051,551.75,345.813,551.885,346.373Z" transform="translate(-386.715 -285.483)" fill="#302040"/>
        <path id="Path_1474" data-name="Path 1474" d="M553.526,343.351l1.2.739C554.1,343.583,553.777,343.326,553.526,343.351Z" transform="translate(-377.696 -299.853)" fill="#302040"/>
        <path id="Path_1475" data-name="Path 1475" d="M550.214,337.758a8.091,8.091,0,0,1-.476-.72A6.788,6.788,0,0,0,550.214,337.758Z" transform="translate(-398.262 -334.119)" fill="#302040"/>
        <path id="Path_1476" data-name="Path 1476" d="M550.093,339.5c-.643-1.273,1.479-.206.386-2.064l.373.527-.3-1.382C550.2,337.111,549.065,337.715,550.093,339.5Z" transform="translate(-398.617 -336.584)" fill="#302040"/>
      </g>
    </g>
  </g>
</svg>
