<svg xmlns="http://www.w3.org/2000/svg" width="237.454" height="214.988" viewBox="0 0 237.454 214.988">
  <g id="Group_123" data-name="Group 123" transform="translate(-88.187 -2563.854)">
    <g id="Group_13" data-name="Group 13" transform="translate(-421.602 2316.412)">
      <path id="Path_1108" data-name="Path 1108" d="M539.434,258.452c.173-.767,2.294.949,2.88,2.027-1.086-3.311,1.286-.483-2.6-5.433-1.337-2.9,2.052-.155,2.958,2.406l-.638-4.467-1.7.147c-3.044-4.277,2.725-.233-.819-5.217l-1.63,2.018-1.009-1.423c.75,1.811-.621,1.923-1.4,1.6-.492-.7-1.414-1.75-1.164-2.156-2.621,1.638,5.183,7.58,4.329,10.546C538.692,258.3,538.891,258.228,539.434,258.452Z" transform="translate(182.886 3.598)" fill="#247a74"/>
      <path id="Path_1109" data-name="Path 1109" d="M538.638,253.3l3.346,5.734-2.458-.164c1.432,1.759,1.587,4,3.535,4.976-.086-.388-.258-1.13.087-1.147,2.966,3.915-.285,3.415,3.277,6.89.267-1.9,1.121-1.207-.733-4.829a4.847,4.847,0,0,1,4.346.776c-.173-.819-2.044-3.173-2.044-3.949a1.358,1.358,0,0,1-.138.371l-4.726-5.648c.664,1.457-.095,1.138-.353,1.544l-3.846-7.959c-4.907-4.881-3.923-.448-6.382-2.13C537.284,251.883,533.878,250.658,538.638,253.3Z" transform="translate(173.515 0.552)" fill="#247a74"/>
      <path id="Path_1110" data-name="Path 1110" d="M534.341,249.177l.026-.035Z" transform="translate(187.169 12.96)" fill="#247a74"/>
      <path id="Path_1111" data-name="Path 1111" d="M528.117,271.528c-.259.379.75,1.811,1.251,2.527l3.794-3.32c-1.345-1.389-3.993-2.3-3.984-3.812-1.69-1.371-1.544.88-.026,3.01l-1.6-2.5c1.509,3.648-3.828-1.57-4.665-3.769l-.043.1L529.625,277C531.075,276.9,527.142,272.571,528.117,271.528Z" transform="translate(99.554 123.658)" fill="#247a74"/>
      <path id="Path_1112" data-name="Path 1112" d="M514.4,273.346a2.39,2.39,0,0,0-.828-2.035A11.715,11.715,0,0,0,514.4,273.346Z" transform="translate(28.87 181.962)" fill="#247a74"/>
      <path id="Path_1113" data-name="Path 1113" d="M523.818,265.57l2.113,4.148A27.382,27.382,0,0,0,523.818,265.57Z" transform="translate(106.948 138.196)" fill="#247a74"/>
      <path id="Path_1114" data-name="Path 1114" d="M519.781,259.4l-.505-.6,1.129,2.08.008-.008Z" transform="translate(72.318 86.614)" fill="#247a74"/>
      <path id="Path_1115" data-name="Path 1115" d="M523.084,268.783l-.052.466A.718.718,0,0,0,523.084,268.783Z" transform="translate(100.956 162.69)" fill="#247a74"/>
      <path id="Path_1116" data-name="Path 1116" d="M520.082,255.542l1.061,4.8c-1.087-1.785-1.527-.629-2.7-2.785a3.044,3.044,0,0,0,.828,2.19l.267-.4c2.932,5.4,4.959,6.735,6.373,11.521,3.225,1.992,1.544-.88.293-3.406a3.721,3.721,0,0,1-.077-1.009l-3.941-7.692Z" transform="translate(65.98 61.749)" fill="#247a74"/>
      <path id="Path_1117" data-name="Path 1117" d="M514.191,266.518l-.294-.379Z" transform="translate(31.317 142.534)" fill="#247a74"/>
      <path id="Path_1118" data-name="Path 1118" d="M513.764,266l1.147,1.552C514.4,266.733,514.161,265.724,513.764,266Z" transform="translate(30.302 141.12)" fill="#247a74"/>
      <path id="Path_1119" data-name="Path 1119" d="M523.562,265.193a33.624,33.624,0,0,1,2.207,3.251l-1.587-3.1A2.222,2.222,0,0,1,523.562,265.193Z" transform="translate(104.996 135.322)" fill="#247a74"/>
      <path id="Path_1120" data-name="Path 1120" d="M523.222,268.06l.914-1.863-1.458-2.855A37.069,37.069,0,0,0,523.222,268.06Z" transform="translate(98.265 121.219)" fill="#247a74"/>
      <path id="Path_1121" data-name="Path 1121" d="M529.122,295.692c-2.423,3.2-3.785-6.088-6.251-6.269-.3,1.345,1.543,4.191,1.7,5.424.552-4.182,6.743,8.831,8.019,5.467,3.535,4.976,2.493,6.554.621,5.95-4.665-3.76-1.932-3.984-5.39-8.6-.353,1.544.5,2.225,2.173,5.088-2.38.207,1.457,8.157-4.639,2.63-.267,1.914,1.586,4.018,2.931,6.925,3.881,4.949,3.734,1.19,7.3,4.674a10.692,10.692,0,0,1-1.785-1.742l1.793.232c-2.285-.948-3.872-4.941-3.7-5.717.268-.4.776-1.19,1.794.233l.336,1.483c1.941.957-1.414-4.786,1.474-2.751a17.291,17.291,0,0,1,1.6,2.5c-1.922-3.975-.983-4.424-1.725-7.761l3.277,5.381c-3.44-6.114-.017-6.39,3.794-4.821a6.793,6.793,0,0,1-2.2-2.078c-.06-1.871,3.329.871,5.01,3.743-2.432-4.7,6.063.638,2.95-5.51l-14.789-28.888a4.458,4.458,0,0,1,.457,1.854c-3.975-3.82-3.811-3.087-6.243-7.778,1,2.932,4.122,6.045,2.992,7.278-1.25-2.535-5.131-7.485-6.752-6.985.448,6.735,8.347,20.394,10.572,28.871-2.794-3.165-4.269-.422-5.985-.284-2.466-3.829-2.483-5.494-2.241-6.89a23.239,23.239,0,0,0-2.476,1.259Z" transform="translate(99.471 136.626)" fill="#247a74"/>
      <path id="Path_1122" data-name="Path 1122" d="M523.984,267.3a3.193,3.193,0,0,0-.732-.414A1.423,1.423,0,0,0,523.984,267.3Z" transform="translate(102.633 148.259)" fill="#247a74"/>
      <path id="Path_1123" data-name="Path 1123" d="M523.581,268.221l-.293-.362-.06.474A1.53,1.53,0,0,1,523.581,268.221Z" transform="translate(102.45 155.646)" fill="#247a74"/>
      <path id="Path_1124" data-name="Path 1124" d="M523.881,266.651l-1.251-2.535c.147.414.216.785.32,1.173A3.392,3.392,0,0,0,523.881,266.651Z" transform="translate(97.899 127.112)" fill="#247a74"/>
      <path id="Path_1125" data-name="Path 1125" d="M523.4,265.016l1.009,1.414a1.768,1.768,0,0,0,.431.112A7.21,7.21,0,0,0,523.4,265.016Z" transform="translate(103.723 133.973)" fill="#247a74"/>
      <path id="Path_1126" data-name="Path 1126" d="M519.415,266.572l.293.957C519.847,267.322,519.674,266.969,519.415,266.572Z" transform="translate(73.382 145.835)" fill="#247a74"/>
      <path id="Path_1127" data-name="Path 1127" d="M529.735,285.523c.785-1.173-3.889-4.958-2.423-6.2l-.673.069c-.655-2.958,1.992-3.544,3.122-4.76,1.457,2.053,2.708,1.716,5.036,4.838.293-1.414.586-2.785-1.526-6.252,1.371.569-.069-2.82,1.673-2.1-1.794-1.578-4.113-6.942-3.924-3.354-.077-.362-.509-.707-.586-1.069-3.156-1.656-.026,3-.905,3.811-2.018-1.337-1.492-3.63-2.6-3.924.241,2.622-5.381.819.267,7.494-.432,1.164-1.785-.224-3.044-1.25,4.613,8.278-7.451.957.155,10.141.181-.768,1.121-1.216.207-3.768Z" transform="translate(90.941 144.036)" fill="#247a74"/>
      <path id="Path_1128" data-name="Path 1128" d="M522.862,264.634c-.1.009-.156.1-.276.078A.69.69,0,0,0,522.862,264.634Z" transform="translate(97.556 131.061)" fill="#247a74"/>
      <path id="Path_1129" data-name="Path 1129" d="M541.261,276.624l4.527,6.364c-1.31,3.5-3.6,2.553-5.587,4.6a2.957,2.957,0,0,1-1.1-1.8c-.957,1.958-4.294,2.587-3.131,6.269-.526.362-3.38-.483-4.355-2.656.2.724.354,1.466-.077,1.492-1.854-2.1.1-1.112-1.345-2.9-.336.035-.768-.319-.25.405-1.173-2.156-6.425-7.011-4.622-8.279,4.829,4.51-.7,1.561,4.294,6.8.6-.422-1.25-2.526-1.767-3.242.819-.466,1.957.948,2.966,2.242-1.147-1.949,1.734-.293-.043-3.225,1.035-1.578,3.372,4.234,4.234,3.423l-4.13-6.071,2.388-.19c.561-3.786-8.347-9.477-8.477-14.737,2.1,3.216,7.183,7.33,9.322,7.537-.526.785,1.225,5.528-1.069,4.588,4.915,3.372-1.3,1.983,3.527,6.484-1.345-2.906-.569-4.088,1.319-3.475l.155.742c1.362-.121-2.846-6.563.216-5.295.44-.673,1.647,1.009,2.622,2.414C540.691,276.849,540.235,275.374,541.261,276.624Zm-.319,2.251-1.259.095C540.64,279.746,540.907,279.47,540.942,278.875Z" transform="translate(114.358 134.773)" fill="#247a74"/>
      <path id="Path_1130" data-name="Path 1130" d="M532.034,249.336l.621.259A.927.927,0,0,0,532.034,249.336Z" transform="translate(169.581 14.439)" fill="#247a74"/>
      <path id="Path_1131" data-name="Path 1131" d="M523.629,256.035l.612-.19A.6.6,0,0,0,523.629,256.035Z" transform="translate(105.507 63.981)" fill="#247a74"/>
      <path id="Path_1132" data-name="Path 1132" d="M523.478,254.37l-.414-1.88C522.866,252.792,523.09,253.49,523.478,254.37Z" transform="translate(100.639 38.483)" fill="#247a74"/>
      <path id="Path_1133" data-name="Path 1133" d="M531.412,249.841l-.059-.026.143.388Z" transform="translate(164.386 18.093)" fill="#247a74"/>
      <path id="Path_1134" data-name="Path 1134" d="M526.718,252.247a7.738,7.738,0,0,0,1.405.931A2.754,2.754,0,0,0,526.718,252.247Z" transform="translate(129.056 36.63)" fill="#247a74"/>
      <path id="Path_1135" data-name="Path 1135" d="M523.123,253.053l.126.068-.2-.413Z" transform="translate(101.07 40.145)" fill="#247a74"/>
      <path id="Path_1136" data-name="Path 1136" d="M521.525,254.39a6.493,6.493,0,0,0,.172.793A1.3,1.3,0,0,0,521.525,254.39Z" transform="translate(89.468 52.967)" fill="#247a74"/>
      <path id="Path_1137" data-name="Path 1137" d="M523.131,256.18a3.068,3.068,0,0,0,.173.8Z" transform="translate(101.711 66.613)" fill="#247a74"/>
      <path id="Path_1138" data-name="Path 1138" d="M520.231,256.438l.052,1.319A1.412,1.412,0,0,0,520.231,256.438Z" transform="translate(79.603 68.58)" fill="#247a74"/>
      <path id="Path_1139" data-name="Path 1139" d="M522.587,255.909l.535.854A2.016,2.016,0,0,0,522.587,255.909Z" transform="translate(97.564 64.547)" fill="#247a74"/>
      <path id="Path_1140" data-name="Path 1140" d="M534.124,250.906l-.026.05.531.666Z" transform="translate(185.32 26.41)" fill="#247a74"/>
      <path id="Path_1141" data-name="Path 1141" d="M533.546,250.626l.163-.923C533.477,249.841,533.425,250.177,533.546,250.626Z" transform="translate(180.625 17.236)" fill="#247a74"/>
      <path id="Path_1142" data-name="Path 1142" d="M528.677,252.972a9.347,9.347,0,0,1,2.613,2.415C530.634,253.955,528.255,251.118,528.677,252.972Z" transform="translate(143.61 37.517)" fill="#247a74"/>
      <path id="Path_1143" data-name="Path 1143" d="M538.227,257.237a24.979,24.979,0,0,1-1.242-2.208A6.638,6.638,0,0,0,538.227,257.237Z" transform="translate(207.325 57.846)" fill="#247a74"/>
      <path id="Path_1144" data-name="Path 1144" d="M537.618,256.394l-.716-1.544A16.7,16.7,0,0,0,537.618,256.394Z" transform="translate(206.692 56.481)" fill="#247a74"/>
      <path id="Path_1145" data-name="Path 1145" d="M533.382,258.829a2.518,2.518,0,0,0-.854-.647C533.183,258.933,533.39,259.037,533.382,258.829Z" transform="translate(173.348 81.883)" fill="#247a74"/>
      <path id="Path_1146" data-name="Path 1146" d="M545.3,267.483c-1.009-1.423-1.043-6.3-3.614-5.347-3.372-4.243-.319-2.984-.638-4.467-1.19-.656-2.026-2.837-3.372-4.234.146.724.827,2.182.146,2.251-1.776-1.75-2.19-3.6-1.087-3.3-2.458-1.69-1.923-3.984-4.225-4.941-.708,3.07-.82,5.717,2.88,12.944.259-1.906.466-4.174,2.751-3.242l2.614,3.932c-3.648-2.337-2.311.56-3.6,1.052l3.837.06c3.544,2.139,3.406,3.415,3.121,4.751C544.357,266.819,544.719,266.879,545.3,267.483Z" transform="translate(170.219 0)" fill="#247a74"/>
      <path id="Path_1147" data-name="Path 1147" d="M536.588,253.919l.121.078a2.565,2.565,0,0,0-.208-.449Z" transform="translate(203.635 46.548)" fill="#247a74"/>
      <path id="Path_1148" data-name="Path 1148" d="M527.256,264.914l.94,1.535A6.18,6.18,0,0,0,527.256,264.914Z" transform="translate(133.157 133.195)" fill="#247a74"/>
      <path id="Path_1149" data-name="Path 1149" d="M534.677,251.689Z" transform="translate(189.73 32.376)" fill="#247a74"/>
      <path id="Path_1150" data-name="Path 1150" d="M527.84,264.486l.232.328Z" transform="translate(137.609 129.932)" fill="#247a74"/>
      <path id="Path_1151" data-name="Path 1151" d="M520.907,255.723l-.439-.457A.58.58,0,0,0,520.907,255.723Z" transform="translate(81.41 59.645)" fill="#247a74"/>
      <path id="Path_1152" data-name="Path 1152" d="M527.809,264.446l.267.345Z" transform="translate(137.373 129.628)" fill="#247a74"/>
      <path id="Path_1153" data-name="Path 1153" d="M530.307,261.613l-1.2-1.069A3.228,3.228,0,0,0,530.307,261.613Z" transform="translate(147.275 99.881)" fill="#247a74"/>
      <path id="Path_1154" data-name="Path 1154" d="M528.565,260.779l-.414-.328Z" transform="translate(139.98 99.172)" fill="#247a74"/>
      <path id="Path_1155" data-name="Path 1155" d="M527.28,250.649a.714.714,0,0,0-.38.655C527.151,251.253,527.315,251.089,527.28,250.649Z" transform="translate(130.451 24.448)" fill="#247a74"/>
      <path id="Path_1156" data-name="Path 1156" d="M527.867,264.524c.267.431.526.88.819,1.457A13.979,13.979,0,0,0,527.867,264.524Z" transform="translate(137.815 130.222)" fill="#247a74"/>
      <path id="Path_1157" data-name="Path 1157" d="M528.312,257.875l.185.514.235.109Z" transform="translate(141.211 79.534)" fill="#247a74"/>
      <path id="Path_1158" data-name="Path 1158" d="M536.754,264.738l.819,1.345c-.38-2.216,2.553-1.88-.439-5.881-.216.336-3.587-.673-5.2-3.139.2,1.449-2.915-.517-2.708.379,2.716,1.294,2.785,3.165,3.19,5.01-1.535-.629-2.449-3.2-3.553-3.475l-1.052,1.587,1.638-.508,2.682,4.01-.155-.457C532.605,260.193,536.624,268.886,536.754,264.738Z" transform="translate(137.388 73.344)" fill="#247a74"/>
      <path id="Path_1159" data-name="Path 1159" d="M528.943,258.109a4.729,4.729,0,0,0,.422,1.181C529.521,259.075,529.279,258.635,528.943,258.109Z" transform="translate(146.018 81.318)" fill="#247a74"/>
      <path id="Path_1160" data-name="Path 1160" d="M530.611,258.8a3.832,3.832,0,0,0-.121-.888Z" transform="translate(157.811 79.786)" fill="#247a74"/>
      <path id="Path_1161" data-name="Path 1161" d="M523.024,263.78c.948,1.061,4,2.311,1.629-.518l-1.819-.008Z" transform="translate(99.446 120.54)" fill="#247a74"/>
      <path id="Path_1162" data-name="Path 1162" d="M531.981,253.9a.57.57,0,0,0-.457.259l.293.5C532.231,255.01,532.076,254.269,531.981,253.9Z" transform="translate(165.693 49.216)" fill="#247a74"/>
      <path id="Path_1163" data-name="Path 1163" d="M528.2,256.872a5.376,5.376,0,0,0,.733,1.647A4.11,4.11,0,0,0,528.2,256.872Z" transform="translate(140.384 71.888)" fill="#247a74"/>
      <path id="Path_1164" data-name="Path 1164" d="M532.234,254.7a25.952,25.952,0,0,1,3.053,2.759c.37-.259-.621-1.957-.708-2.785C534.519,255.422,533.821,255.517,532.234,254.7Z" transform="translate(171.106 55.117)" fill="#247a74"/>
      <path id="Path_1165" data-name="Path 1165" d="M532.5,254.664l.016.069Z" transform="translate(173.165 55.056)" fill="#247a74"/>
      <path id="Path_1166" data-name="Path 1166" d="M607.657,375.483l.181.871-.465-.905-1.544-.173a1.959,1.959,0,0,1,.043.733,3.755,3.755,0,0,0-.474-.819l-.535-.112c1.776,3.492,1.923,6.994,2.88,9.115.414,1.776.233,3.122-.431,3.294.5-.311.595-1.388-.923-2.872-2.3-.957-6.778-5.476-4.872.009l.863-.819,3.164,8.02c-2.88-2.035-1.578-4-3.174-6.519.975,4.432-7.226-2.785-3.449,3.294-2.785-3.165-7.433-8.434-8.209-7.243,3.82,3.078,1.337,2.9,5.234,6.347,1.164,2.156-2.139-.2-.2,2.277l-1.009-1.423c-6.028-3.665.035,4.872,1.457,8.149-1.043,3.1-3.76,1.8-5.062,3.8-1.871-2.121-7.287-7.709-7.8-6.907,2.1,3.217,1.647,5.872,4.6,9.779,2.552.543-1.6-4-1.57-5.5,3.9,3.432,3.285,3.855,6.088,5.519-1.949-.966-1.406,4.631-5.217,1.535l-.173-.733c-3.061-1.259-10.986-10.391-8.33-3.1l.948,3.1-.879-1.207c-1.889.9-5-3.751-3.941,1.069-.069-.371-.5-.716-.578-1.087-2.724-1.3-.206,3.769-.224,5.278-3.053-2.768-2.449-3.182-4.045-5.691-2.734.216-.155,7.149,1.94,11.874l-2.638-.923a20.2,20.2,0,0,0-4.113-7.563c-.086,1.138,1.259,2.527-.112,2.639-1.518-2.13-2.7-4.3-4.381-7.174-4.571-1.88,5.493,7.459-.862,2.337-.6.423,1.5,3.631,3.44,6.114l-3.647-2.337c2.44,3.182,1.319,4.407.879,5.553,1.009,1.423,3.4,2.751,2.725,1.294,1.94,2.484,2,4.355,1.4,4.777-5.562-6.321-2.932,4-8.571-4.2-.8,4.217-3.838,7.821-3.277,11.909-2.035-1.328-3.234-.492-5.079-4.1-2.061,1.664,2.371,9.192-1.121,9.1-.845-.673.871-.819-.983-2.923.82,3.7-4.691-.742-5.312,2.69.241-.405-.759-1.828-1.268-2.535.922,1.043.991,2.923,1.319,4.406-.75-.311-.242-1.1-1.1-1.794-6.571.138-2.328,11.461-6.519,14.436,1.19-.845-1.923-5.493-3.363-7.261l-1.182.828c1.354,2.5.518,3.191,1.138,5.355a7.161,7.161,0,0,1-2.294-2.613c-5.777-2.544,3.061,10.659-1.466,10.641l-3.915-11.34-3.285-2.354-1.828-5.122c-2.811-1.673.974,4.432-1.82,1.259-.578-1.061.1-1.13-1.337-2.9-1.871-.6.069,1.88-.026,3.027-3.855-7.968-.586-10.486-.216-13.53-.155-.742,1.086,1.785,1.6,2.5.508-.793,2.63.931,2.569-.948-1.776-3.251-2.121-1.716-2.794-1.647-1.949-2.492-1.613-2.518-1.44-3.285,2.794,3.156,3.6-1.035,7.494,2.414,1.742-3.156-7.347-8.063-3.665-8.735l3.812,3.1c-.905-4.079-1.121-8.192,1.19-8.761l-.259.414a10.31,10.31,0,0,0,3.121,3.1c2.561.569-.042-4.872,3.786-1.785a39.707,39.707,0,0,1-1.923-13.383c4.476,4.527,1.3,5.907,3.148,9.529l1.466-1.242c-.863.819.318,2.975,2.069,6.217,2.043-.164-1.061-4.794-.862-7.054,1.009,1.406,1.846,2.087,2.449,1.656l-2.518-3.38a1.459,1.459,0,0,0,.836.509l.552-3.794c-1.621-1.009-3.976-3.82-4.579-3.389,1.777,1.725,1.6,2.5,1,2.915-1.259-2.527-2.044-1.328-3.475-3.1a5.3,5.3,0,0,0,2.251-3.941l2.725,2.785c1.707-.138,1.457-2.751,2.915-2.483l1.086,1.785c2.061-.164,1.75-3.139,5.312-1.173-1.673-4.381-2.562-8.434-4.579-12.788-2.682-4.286,7.416,2.035,4.225-4.484.423.345,1.5,3.648,2.259,5.476,1.363-.121-1.905-5.493,1.725-1.656-3.086.25,2.786,3.165,2.863,5.053a3.745,3.745,0,0,0,.449-4.182c-1.449,1.25-4.114-6.062-4.148-3.053-1.673-4.38-1.216-7.054,1.259-6.864,1.432,1.768,2.285,2.44,3.4,2.742l-1.682-2.889c1.026-.069,1.233,4.044,3.286,3.88-2.26-5.467,6.071-.862,0-9.4,3.647,2.337.716,4.82,5.476,7.451,1.509,3.648-2.475,1.337.552,5.6-.069-1.871,3.131,3.139,3.725,2.708l-1.078-3.285-.336.026c-1.5-5.148,2.612-5.476,4.174-7.847-1.569-5.519-5.183-12.383-2.691-13.694,1.328,2.889,3.656.819,5.916,6.278,2.716,1.293,1.638-2,.207-3.768-1.363.112-.768-.311-2.217-.578-1.259-2.536-.052-3.372,1.57-2.372-.345.026.077.371.578,1.078,2.216.569-1.251-2.527-1.233-4.036,2.691,2.777,2.3-.569,4.259.414l-2.518-5.071c1.76,3.242,1.794.233,4.07,2.682-.914-2.552-3.182-6.51-1.474-6.649.75,1.82,2.724,1.285,5.079,4.1,4.1,1.173-3.311-10.262,1.785-7.658.5.707,1.69,2.863,2.785,3.148-.25-1.121.733-1.371.905-2.035l.061.095-.052-.1c.1-.328-.069-.785-.629-1.475-1.552-3.389-3.51-6.545-4-10.089-2.785-3.156-2.975-.88-2.647.6l2.182,3.578c-4.475-4.536-.6,1.931-2.294.561-3.872-6.459-.2-7.132-1.6-11.9-4.648-3.768-7.235-2.811-8.528-.828l2.372,1.319-.854.811,3.734,2.716c-1.363.112-1.389,1.613-2.329,2.061.862-.819,4.915,3.363,3.812,3.079-3.648-2.337.655,2.958-.285,3.406.672-.06,1.284-.474,2.458,1.682-4.76-2.621-3.07.267-7.916-2.742,4.648,5.26-1.293,1.975,2.156,6.588l1.017-.086,1.328,4.406c-4.915-3.363-2.587-5.424-7.1-6.942-2.225.923,2.509,6.571,1.457,8.149-2.19-3.587-3.346-7.261-2.139-8.1l-1.957-.975c-1.173-2.156.716-3.062,1.647-3.518,1.751,4.743,1.544.638,4.51,3.027-2.466-3.191-2.88-2.018-3.958-5.312-.871.811-.793,1.181-2.923.975,3.691-.673-6.623-12.633-2.268-11.84.146,2.242,4.044,4.174,5.407,5.579a8.709,8.709,0,0,0,.284-3.406l-4.053-4.182c-.319-2.992,7.959,6.131,5.622.284-2.018-2.837-2.044.164-2.216-.578-.293-4.475,6.39,2.13,10.978,4.019a43.442,43.442,0,0,1-4.7-7.14c2.018,2.854,3.622,3.846,4.536,6.4,1.544.647.621-1.914.285-3.4-2.552-.552-2.673-4.286-3.777-6.088,1.026-.086,2.018,2.846,2.26,3.949,1.121.293,5,3.734,1.984-.534,2.354,2.82,4.7,8.658,4.337,10.184l1.026-.086c.751,1.82.319,1.483-.681,1.578a24.787,24.787,0,0,1,5.889,6.278c-.414-.345-.5-.716-.914-1.052-1.113-.284-.88.819.492,2.225,2.665,4.182,2.682,1.776,4.6,3.38l.164-1.414L579,320c-.027-2.38,2.906.112,5.294,1.242l-2.458-3.458c1.276-.492,3.078-.241,5.855,4.424-.94-1.069-.854-.7-1.2-.673a7.766,7.766,0,0,1,.69,1.138l.422.612a31.83,31.83,0,0,0,.267-3.355c2.087,6.235,4.812,5.993,9.279,12.038l.293-3.406c-2.638-.914-2.363-2.811-2.613-3.924,2.8,3.165,1.466-1.259,2.483-1.345l.509.716c1.526.638,2.311-.552,2.328-2.052-.932-1.061-4.372-7.175-6.562-10.762-2.285-.155-2.6-2.1-4.381-4.036.285.078.552-.078.241-.518-.586-1.078-1.276-1.026-2.2-2.078-.1,2.639-1.147,4.234,2.044,9.236,2.122,1.707-.905-2.552.7-1.569,1.845,3.613.483,3.734-.724,4.588l-2.613-2.432.069,2.423c-.716-1.836-3.346-4.45-2.6-5.984-2.277-2.449-.7,1.569-2.148,1.3l2.613,3.932c-1.517-2.13-3.406-1.233-4.57-4.907l-.629-4.45-2.553-2.069.958-1.949,1.19,2.173c.38-4.545,6.674,6.606,5.614.285-2.854-5.028-2.406-6.183-.009-6.364-.284,1.88,2.441,3.182,4.122,6.062,2.639.9.026-3.027-.81-5.217,2.2,2.078,3.967,3.811,2.69,4.294,3.881,4.959.621-1.914,4.838,2.992,3.182-2.88-10.667-18.316-1.647-15.272l1.517,2.139c.38-4.544,3.794-3.3,4.752-6.778l6.028,3.648c.25,1.112,2.328,5.829,4.872,7.882-5.148-4.45-4.57-1.88-7.812-3.88a13.451,13.451,0,0,0,3.052,2.777c-.6.414-2.8-1.673-2.811-.155.923,1.043,2.795,1.647,2.708,2.785l-3.656-2.337c-.112,2.639,5.631,8.183,2.828,8.037-2.052-3.087-4.854-7.7-4.795-8.9-1.233-.017-.449-2.527-2.518-3.682,2.423,5.088-.836,2.173-.06,5.976-.319-.733-.958-1.6-.819-2.13l-3.51-.1c2.535,2.044.56,4.088,3.777,7.606,3.415-.285.948-1.966,5.14-1.923-.009,1.406,2.164,5.872,4.57,9.649a.66.66,0,0,0-.4-.207c2.612,3.932,3.794,4.588,9.028,10.926-2.6-5.441,1.216-2.345.406-6.045-2.613-3.674-4.424-3.777-4.346-2.337l-.724-3.268L612.1,313.1l3.932-1.293c-.414.656,1.061,2.82,2.017,4.588.5-.19,1.639.422,2.863,1.095-2.82-3.242-4.7-5.631-4.268-5.872,2.561-.793,6.08,1.3,9.917,4.5l.017-.414c-3.122-3.13-3.673-7.226-5.95-11.185,2.872,3.536,2.725,1.293,4.76,2.622a72.57,72.57,0,0,0-11.4-12.237c1.742,4.752,2.337,4.312,6.045,10.046l.793,5.191-2.182-3.6c-2.208-.561.3,4.5-3.078.259-1.751-3.242.552-2.285-1.216-5.528L612.4,300.3c-2.182-5.1,3.889,3.449,2.984-.621-3.475-3.1-.078-.362-1.414-3.268-2.544-2.052-1.742,3.148-6.286-3.259-1.423-3.268,8.4,4.958,4.45-1.863l.509.724c2.129-.448-.19-4.337-1.432-6.959,2.251,1.431.854-2.035,1.354-2.82l1.44,1.768.354-1.535c2.182,3.587-1.2.854-1.647,2.009l2.793,3.174c-4.156-3.087.069,3.329,1.656,6.752-1.259-3.717,3.7-1.716-1.312-8.3l3.389,2.733-.664-1.449c2.544,2.07,5.234,6.364,4.881,7.9a8.229,8.229,0,0,1-1.785-1.751c.758,1.828,2.44,4.7.733,4.846l-.845-2.208c-1.535.888-1.734,3.156.457,6.744a10.788,10.788,0,0,0,6.933-3.2c-5.554-7.821-8.33-12.487-13.711-19.558.181-2.285,1.07-4.605,4.2-2.975l1.026,1.431c1.095.267,1.267-.5,1.026-1.612,2.035,1.354,2.612,3.932,3.8,4.6l-.147-3.751c2.466,3.19.992,4.432.475,5.226a2.733,2.733,0,0,0-.673-1.457c-1.872-.6.966,5.95-3.088,1.75.242,1.112-1.932-3.975-3.475-3.1-2.294-.948.733,3.329,1.751,4.743,1.432,1.776,3.406,1.242,4.657,3.777.517-.8-1.078-3.3,1.224-2.354-.517.793,1.484,5.14-1.147,2.708,1.337,4.415,8.338,12.5,9.365,12.418-2.285-2.458-.112-5.26-4.708-7.131-1.932-3.993-.465-5.252-1.129-8.192l.509.707.63-1.923a16.725,16.725,0,0,0,2.259,3.95l-2.07-6.218c1.587,4.01,2.449,1.673,4.07,2.682-2.027-2.846-2.932-5.407-4.889-6.381-2.38-1.319.75,1.82.224,2.6l-2.518-5.053.431.345-2.268-3.967c1.544-.862,6.071,8.554,4.993,3.734l-4.131-4.536c2.578-.966,9.538,2.242,9.15-1.112,1.828,3.009,5.225,7.476,7.882,9.6-1.285-.31-2.372.871-2.871,2.035-.854-.69-3.519-6.493-1.734-6.252-6.856-7.364,1.466,6.64-5.113-1.1-4.683-.742,4.432,9.046-1.423,6.131,2.863,3.527.827,2.2,3.277,5.372,5.329,5.217,2.578-2.458,5.562-1.561a4.842,4.842,0,0,0,.75,1.811c1.793.233,1.552-.862,1.138-2.716l-.423-.345c-1.664-4.381,2.881,2.026,4.838,2.992-.173-.742,1.621-.509-.664-2.949l3.993,2.3-3.294-3.863c.517-.8,2.8,1.647,1.466-1.259l-2.863-3.518-2.742.224c-.06-1.88-2.518-3.57-2.164-5.1,2.087,4.726,2.371,1.311,5.166,4.475l-.923-2.561.595,1.078c2.044,1.354-.413-1.837.612-1.923-2.38-1.311-4.907-3.363-3.837-.069-.914-2.553-1.3-5.907-1.061-6.312-.457-2.078,2.268.155,3.295-.017-.181,2.509,9.244,10.219,4.475,9.926-.509-.707-.164-.742.259-.4-4.053-4.174-1.38,1.613-.552,3.8,2.277,2.458,2.2,3.6,4.406,4.165-1.7-1.363-3.872-6.459-1.138-5.166l4.371,5.657,1.975-.535.078.371c3.476,3.1.966-1.949,3.673-.673-.913-2.553,3.113-3.251-2.828-8.046,3.734,2.725.888-2.32,1.242-3.855l-3.07-1.25c-1.828-5.122-.129-2.233-4.182-9.451a23.109,23.109,0,0,1,3.726,4.217c2.147-1.293,6.174-1.992,3.561-7.425,1.544-.879,7.123,5.442,6.916,1.328-.25-1.1-4.579-4.9-2.009-4.346.423.336,2.164,5.079,3.2,3.492-2.509-5.053,4.268.414,2.527-4.338,1.949.975,2.656-.586,5.183,2.975-1.717.129-2.673,2.087-1.579,3.889-1.526-2.147-2.38-1.319-2.871-3.536-3.734-1.19.647,2.958-2.25,2.432,1.018,1.423,3.829,3.1,3.156,1.63,3.785,4.57-1.061,4.6,4.768,9.02,1.9-.9-5.527-10.831-.181-7.131,1.759,3.242-1.043,1.578,2.242,6.959l2.63.931-1.914-3.984.5.716c5.433,2.57-2.079-6.226-2.216-9.986-3.639-2.337-6.321-8.14-8.692-9.451.69-1.561,2.061-1.656,5.847,2.915.888,5.562,3.889,4.95,5.631,11.21,1.682,1.362,5.053,7.106,6.683,6.606-1.328-4.4-3.562-3.475-3.45-6.123a6.569,6.569,0,0,1,1.355,1.4c-1.337-2.9,1.44.267.026-3l.578,1.069c3.234,2.009-1.579-4,1.733-1.638-3.139-3.13-1.768-3.234-3.019-5.778-1.879-.6-6.355-5.114-7.752-3.518,2.035,2.854,3.389,4.243,3.8,6.1l.776-1.19c.138.629.535,1.458.767,2.164l-2.156-.56c-.31-2.975-3.268-5.364-5.036-8.615,2.139.207.354-1.535,1.8-1.259,3.2,4,7.839,4.881,11.271,6.3-.336.017-.517.345-.75.362,1.078,3.3,3.4,2.734,4.32,3.786l-.914-2.561a3.1,3.1,0,0,0,1.431,1.776c.362-1.535-2.932-5.4-2.579-6.942,1.872,2.121,3.777,6.088,5.321,6.735,1.768,1.725,6.6,6.235,6.3,3.251a3.127,3.127,0,0,1-.57-2.32,1.379,1.379,0,0,0,.155.474l2.8,1.673c2.337,4.3-2.907-.543-.552,3.777l2.846,3.579c-.56.483-.069,2.639,1.087,4.76,1.362-.121.768-1.2,1.13-2.725a12.272,12.272,0,0,1,2.768,4.665l-1.518-2.139c-3.561-1.966,1.078,4.8-.906,5.338-.336.034-.405-.345-.914-1.043,1.656,4.364-3.346.629-.75,6.071l-1.173-2.164c.474,2.138,1.837,6.838,3.113,11.434l1.121,1.38c.846.69.242,1.1-.517.8l-.018-.026c.629,2.294,1.19,4.432,1.553,6.088a4.6,4.6,0,0,0,2.156,1.164c-1.095-1.8,1.372-1.621-1.837-5.122,2.457,1.673.862-2.337,2.483-1.337-2.794-1.647-2.259-3.949-3.785-6.08,2.2,2.07,1.121-1.224,3.578,1.975.837.673-2.121-1.716-.948.449,1.5,3.63,3.743,1.19,4.9,4.863-.38-3.354,2.259-3.941,1.362-8.011l-1.871-.595c1.026-.078,1.983-2.035,3.346-.63-.19.759-.776,1.19-.879,2.32,2.863,3.536,1.466-1.242,3.32.862l-3.01-7.278-.94.448c-1.267-2.535,2.492-1.319,4.113-1.828,3.269,5.372-1.724,1.638-1.414,4.614.578,2.587,4.4,4.165,4.467,6.036,1.156.931,1.613.328.906-1.112l1.061.578c2.828,5.01.267,5.493,2.19,10.21a13.771,13.771,0,0,0-.982-1.656c-2.3-.94-3.157-.121-3.079,1.759,1.6,1,1.008-.095.854-.819.931,1.052.483,2.2,1.155,3.656,1.871.6,2.286,2.449,3.389,2.742.327,1.475-.354,1.535-1.388,1.6-1.69-1.371-1.6-2.5-3.441-4.6.406,1.845-4.165-3.061-3.087.233,2.053-.164,3.544,4.993,4.295,6.812l.345-.026q2.509,4.307-.785,1.173c-.328-1.475.785-1.173-1.5-3.639a2.092,2.092,0,0,0-.276,1.914l-1.173-2.164-1.3,1.992c1.6,2.492,3.785,6.088,6.312,9.632-2.121-1.716-1.284.483-1.034,1.6l-.587-1.1c-2.38-1.3-2.76,1.742-1.242,3.872-2.026-1.345-6.674-16.014-9.028-10.935-1.466,1.242,4.38,7.175,5.364,10.09a6.185,6.185,0,0,0-.922-1.043c-1.026.069.914,2.561,1.233,4.036,1.2.656,1.793.233,1.216-.845,2.018,2.837-1.552.88-.293,3.389-2.768-4.665-2.552-.535-3.812-3.07-3.483-1.6-2.156,2.8-.319,6.416-5.157-4.467-.958,1.957-4.355.724.345-.026.095-1.13.854-.819-1.906-3.958-2.888-.517-4.131-4.553.156.733,1.432,1.759,1.268,1.018.172-.759-.569-2.578-1.941-3.984l-3.552-1.958-.259-1.129-5.08-2.579a9.863,9.863,0,0,0,1.768,1.725c-3.5-.086-3.976,4.079-6.192,5.01,7.339,9.572-1.094,7.6,2.173,14.5a63.254,63.254,0,0,0-7.33-9.6c0-.647-2.44-4.941-1.069-4.769,1.345,1.4,3.648,2.345,4.467,4.527,1.147-2.725-3.631-3.855-5.89-7.8-1.483,2.742,1.7,9.261,2.1,12.616l-.94-1.069.647,2.958c1.38-.1,5.683,5.191,3.044,4.277l-.077-.371c-2.466-1.682-1.647,2.009-2.924,2.492l1.846,3.6c-1.294.483-6.02-5.157-9.15-8.278-1.9.888,1.044,6.295,2.217,9.969-2.553-2.061-5.372-.707-6.615-4.734.389,3.346,11.616,16.358,3.139,11.02l-1.354-2.906c-1.9,2.406-1.276,9.882-4.415,8.253-6.226-9.27-10.1-6.321-17.453-14.392,1.7,1.828,1.354,3.182,2.078,4.312-1.008-.828-2.113-1.518-1.017.5,2.3.94,6.571,9.244,5.5,4.424,3.881,6.476,6.477,11.909,4.321,13.2l-2.863-3.536,2.389-.181c-2.285-2.458-1.345-2.906-2.009-4.363-4.449.362-6.407-8.5-8.908-5.674,1.6,2.51,1,1.414.991,2.941.259-.414-1.681-2.88-2.276-2.458l1.759,3.243c-5.829-5.01-1.474-5.174-5.726-8.572-1.163-3.665-.448-6.735-4.5-10.909-3.165-.121,5.286,9.727,1.707,9.262l-1.768-1.734c.4,1.837,2.837,5.019,4.018,7.183-.94-1.052-1.776-1.725-2.457-1.69,2.587,5.441,2.569,6.942,5.588,12.72-.276-5.976,5.2,1.466,5.338-4.174.759,1.811-.38,4.545,3.5,9.486l-2.88-3.527c.586,2.587,1.147,5.166-.974,4.967l-.914-2.561c.466,3.717-6.977-3.2-3.372,3.639.69-.043.948-.431.776-1.182.492,2.216-.793,2.69-2.147,2.811l2.992,7.269c-1.423-1.759-2.639-.923-4.39-4.148-3.5-1.613.216,4.122.19,5.605-4.4-2.63-.224-2.6-4.1-7.554-3.164-.12-3.88,2.932-2.3,6.942a5.326,5.326,0,0,1,2.329,1.716c-.975-1.052-1.467-.164-1.906.146l1.6,2.509a7.6,7.6,0,0,1-3.8-4.6c-1.008.086,1.837,5.122-1.552,2.38-1.155-3.665,2.234-2.432,1.4-4.622-.457,4.156-8.063-5.01-8.624.311-.931-1.061-2.19-3.6-2.777-3.156-.621,1.932,3.535,4.976,5.226,7.847-.164-2.251,1.457-1.25,4.415,1.147l1.259,2.07c-.836-.923-1.509-.457-2.466-1.233l2.95,3.915c-3.372-4.243-7.011-6.58-6.519-4.355,3.3,2.354,2.957,2.38,7.106,6.942,2.6,5.433-4.924-3.372-2.242,2.44-1.018-1.423-.741-3.329-2.544-3.57-.932.465,1.863,3.63,2.19,5.1-2.285-3.967-4.562-6.416-7.33-11.072,1.043-1.587.6-.423.716-3.061l-3.587-1.983c.716-1.535-2.423-4.691-3.423-6.1-4.933-1.871,2.837,6.536.793,6.692,1.336,2.915,1.63-.5,2.708,2.8-1.63.5,1.6,2.5,1.483,5.131l-1.1-1.785c-2.122-1.716-.431,1.164-.621,1.914.336,1.492,10.572,11.581,8.589,13.625a25.33,25.33,0,0,0-1.5-2.113l-21.989-30.949a15.062,15.062,0,0,1-9.538,3.354c-5.312-5.217-2.052-6.226-4.337-8.666l2.13.207c1.932,2.466-1.828,2.768,2.751,6.174.639-3.441,3.863-1.44,1.707-8.037-5.347-5.217-1.75,3.147-6.666-.233.845-.069.767-1.069.535-2.251l-5.812.768.837,1.638a8.773,8.773,0,0,1,2.733-.009c-1.629.5-.043,4.51,3.337,8.77l.345-.043.629,1.673Zm-79.542,64.054a17.1,17.1,0,0,0-1.035-1.6A6.111,6.111,0,0,1,528.115,439.538Zm91.735-97.728c-2.121.733-4.7.94-6.666,1.724,9.632,5.95,16.781,10.572,11.952,14.28l.19.854A2.334,2.334,0,0,0,628.439,357c-1.613-3.6-7.916-16.505-8.726-17.436-2.2-2.078-.535.793-1.638.509Zm12.59,12.9c1.682.164-.043-1.5-1.25-3.26l-.457,1.414A7.14,7.14,0,0,1,632.44,354.71Zm-2.673-4.864a.52.52,0,0,1-.517-.146ZM610.184,362.5l.009-.172-.974.155A.777.777,0,0,0,610.184,362.5Zm5.2,2.5-2.277-3.2-.906.172A19,19,0,0,0,615.384,365Zm14.194,4.993c-2.622-3.941-1.492-5.148-4.864-9.4a2.752,2.752,0,0,0-2-1.423l-1.354.526a11.166,11.166,0,0,1,1.216,1.9c.793.216,1.906,1.052,3.881,3.743-5.588-4.8,2.432,4.7.215,4.122C628.776,372.672,630.233,371.421,629.578,369.99Zm70.547-76.61,2.3,2.242.992,2.673c-2.061.164-8.063-4.993-4.967,1.147-1.621-.845-4.182-3.354-6.33-5.381a2.782,2.782,0,0,1,1.328.129C690.492,283.912,701.763,300.762,700.125,293.38Zm-21.049,4.976a4.224,4.224,0,0,0-.586-1.087c3.432,10.072,2.88,14.272,1.069,15.263a22.347,22.347,0,0,0,7.873,4.7l2.276,3.958-2.621-2.415,1.578,4c2.217,2.1,2.639.914,4.674,2.259-.5-.707-2.069-6.217-3.337-8.761l-3.4-1.233c1.182.664,2.406-1.7,2.423-3.2-1.423-1.759-4.933-3.372-1.975.543-2.268-2.458-.819-3.708-4.044-5.691-1.155-3.673,2.5-2.846,4.381-2.233l3.725,4.217c2.294.948-3.708-5.726-.578-4.1-.612,1.923,4.156,4.562,3.38,5.743,1.682,1.371,3.794,4.587,4.562,3.4-3.863-6.459,4.079,2.69.716-3.053,2.034,1.337,2.268,3.941,3.984,3.812-1.241-4.044-3.1-6.149-6.485-10.383-2.121-.207,3.182,6.511,1.4,6.269l-4.019-8.7c-1.181-.733-1.526-.63-1.509-.155a9.225,9.225,0,0,0-1.44-3.743l-1.319-2.492c-1.1.854-2.147,1.535-3.778-.1l-1.526-2.147c-1.914-1.552-1.328.423-.388,2.139-.776,1.018.6,4.631-1.785,2.182l-1.156-2.156C680.472,296.743,680.541,297.106,679.076,298.356Zm-42.444,27.319c6.838,6.838,13.047,12.745,15.307,8.692l.163.733c5.527,3.277-1.811-8.873,4.5-5.381,1.32,3.622,1.173,3.311,5.364,10.624l-.672-2.984c3.035,4.286,2.372,1.328,3.32.871L667.9,343.6c-1.621-.992-3.242-.492-2.3.578-.181-.759-6.623-4.734-6.476-2.509,2.794,3.182,3.846.077,7.287,6.191-1.009-2.932,1.785.233,1.725-1.63,1,2.932,3.458,4.6,4.795,7.5l.526-2.3c.932,1.052-.121,4.148,4.381,7.175-.837-2.19,2.483-1.319-.388-4.846l.922,1.043c1.725-.138-3.621-5.355-.638-4.458-1.44-1.776-2.691-2.785-2.872-2.027.234,1.113,2.174,3.579,1.742,4.751-2.63-2.44,1.293-.483-3.121-4.648-2.191-2.078-.552,3.8-4.243-1.906l1.707-.146c-2.88-3.536-1.932-3.984-4.286-6.8-.405-1.837,3.484,1.6,1.63-2.009-1.587-2.5-5.562-6.321-2.924-5.407,5.157,4.467,6.9,1.337,7.252-.207l-1.009-2.932c-1.854-2.1-1.362,1.621-3.138-1.621l.62-1.94,1.009,1.44c.682-.06-.06-1.88-.3-2.975,1.681,2.863-.1,2.63,3.1,6.131,1.208.207,2.423,1.483,2.415.319a3.049,3.049,0,0,0,.715,1.3c2.561.56-2.172-5.088-2.837-6.536-2.673-5.795-4.915-3.363-7.865-7.252l2.009-5.053a14.112,14.112,0,0,0,2.691,4.294c2.294.94,2.362,2.82,3.484,1.6-4.226-4.924-.983-4.432-2.475-8.054,2.1,1.7,2.536,2.044,1.664,2.855,2.785,3.156,2.984.9,3.665.828-.414-1.009-.37-1.837-.7-2.785a9.673,9.673,0,0,1-3.57-5.519l-.526-.716c-2.026.181-6.967-1.7-5.045,2.3l-1.095-1.8c-3.821-1.569,1.543,8.528-4.208,2.975-1.949-2.484-.767-.31-3.63-3.837l1.156,3.648-1.087-1.776-1.224,2.345-.492-.7,4.363,9.667a12.77,12.77,0,0,1,2.337,3.329c.319,1,.2,1.3-.172,1.267l.017.017-.017-.017c-.828-.06-2.958-2-4.269-2.432l1.44-1.82c-2-2.725-4.373-5.295-6.735-6.4.267-.388-1.251-2.535-1.932-2.475.509.716.224,2.6,2.346,4.32-.88,2.329-9.193-2.268-7.649,4.743-.639-4.458-4.321-2.268-3.191-5-4.829-2.992,2.173,5.088.207,5.614-1.363-1.388.94-.44-1.164-3.656-3.759.3,1.526,10.029-1.819,10.667l-2.768-3.156Zm-1.225,7.8-.431,2.225c.095.017.138-.017.224-.009l.82,3.716c1.863.578,5.337,3.691,5.57,6.3-1.009-1.423-2.708-2.785-2.958-3.9-2.372-1.32-5.605-1.8-1.129,2.725-2.337-5.838,5.493,5.95,3.811,1.561,2.026,3.708.216,2.777.8,4.691-1.587-3.173-5.131-5.941-7.106-6.45.25,1.121-1.449,1.259-1.044,3.1,2.708,2.8,3.544,4.993,5.252,4.855.25,1.113.155,2.251-1.811,1.268a3.941,3.941,0,0,0-.906-2.553c-2.725-2.389-3.13-1.837-4.4-2.777l-.284,1.043a8.912,8.912,0,0,1,1.018.9l1.423,3.259c-.146-2.233,1.613,1.009,3.044,2.768-2.863-3.527-1.026.086-1.284.491l3.82,3.079c1.164,2.156-3.5-1.621-.285,1.9,2.82.146,2.906-.992,3.44-3.286l-2.958-2.4c-.052-3.38,5.079,4.1,6.795,2.458-1.405-3.251,2.6-2.458-1.707-7.752,1.1,1.794,5,3.743,3.665.845-3.286-5.39-1.734-7.761-4.174-9.434-.613.405.811,3.682-2.233.931l.276-1.915-2.888-2.035C640.926,339.731,638.77,337.2,635.407,333.479Zm-48.963-9.21-.1-.034.061-.026Z" transform="translate(13.106 8.208)" fill="#247a74"/>
      <path id="Path_1167" data-name="Path 1167" d="M536,254.748c-.673-1.457.267-1.906-2.018-4.355C536.35,253.213,532.952,251.971,536,254.748Z" transform="translate(184.47 22.497)" fill="#247a74"/>
      <path id="Path_1168" data-name="Path 1168" d="M535.95,253.043c-.508-.724-1.431-1.776-1.172-2.164l-.362,1.518Z" transform="translate(187.74 26.202)" fill="#247a74"/>
      <path id="Path_1169" data-name="Path 1169" d="M538.276,257.373c-1.25-2.527-1.914-3.975-.975-4.424,5.993,6.666.311,2.984,5.287,9.719,1.966-.526-2.579-6.925-1.88-8.485C537.741,251.785,533.981,252.087,538.276,257.373Z" transform="translate(202.386 40.421)" fill="#247a74"/>
      <path id="Path_1170" data-name="Path 1170" d="M538.13,256.61l-.5-2.214-.413-.337.5,2.215Z" transform="translate(209.114 50.441)" fill="#247a74"/>
      <path id="Path_1171" data-name="Path 1171" d="M530.463,249.765c-1.863-2.1-.6.44-.44,1.181C530.36,250.9,531.127,251.222,530.463,249.765Z" transform="translate(149.948 11.492)" fill="#247a74"/>
      <path id="Path_1172" data-name="Path 1172" d="M515.073,263.766l-4.355,7.1A48.766,48.766,0,0,0,515.073,263.766Z" transform="translate(7.082 124.443)" fill="#247a74"/>
      <path id="Path_1173" data-name="Path 1173" d="M532.4,261.8c-.052-3.381-2.406-7.7-1.527-10.029-5.778-2.544,2.725,9.184-2.785,6.243Z" transform="translate(139.515 30.217)" fill="#247a74"/>
      <path id="Path_1174" data-name="Path 1174" d="M527.007,250.558c3.63,3.846,2.673,5.8,5.381,8.6.276-1.906-2.7-4.3-1.405-4.777Z" transform="translate(131.259 23.754)" fill="#247a74"/>
      <path id="Path_1175" data-name="Path 1175" d="M534.3,257.648l1.255,2.518-.244-1.094Z" transform="translate(186.892 77.807)" fill="#247a74"/>
      <path id="Path_1176" data-name="Path 1176" d="M528.665,253.171l-.582-1.069-1.877-.607Z" transform="translate(125.154 30.891)" fill="#247a74"/>
      <path id="Path_1177" data-name="Path 1177" d="M526.355,251.439l.595,1.087Z" transform="translate(126.288 30.471)" fill="#247a74"/>
      <path id="Path_1178" data-name="Path 1178" d="M535.066,260.4l1.457.261-1.18-2.165Z" transform="translate(192.699 84.299)" fill="#247a74"/>
      <path id="Path_1179" data-name="Path 1179" d="M533.341,258.435l-.413-1.837C533,256.952,530.719,256.02,533.341,258.435Z" transform="translate(169.913 69.799)" fill="#247a74"/>
      <path id="Path_1180" data-name="Path 1180" d="M525.746,251.966l.5,2.223.413.337-.489-2.214Z" transform="translate(121.647 34.487)" fill="#247a74"/>
      <path id="Path_1181" data-name="Path 1181" d="M532.7,258.6c3.035,2.751-.613,1.923,2.6,3.923C535.737,261.356,534.046,260,532.7,258.6Z" transform="translate(174.674 85.1)" fill="#247a74"/>
      <path id="Path_1182" data-name="Path 1182" d="M529.63,257.07c-.112.086-.138.293.043.724A2.574,2.574,0,0,0,529.63,257.07Z" transform="translate(150.582 73.398)" fill="#247a74"/>
      <path id="Path_1183" data-name="Path 1183" d="M529.656,257.974c.345-.293,1.682.621,1.173-.483C529.225,256.439,529.509,257.1,529.656,257.974Z" transform="translate(150.556 72.494)" fill="#247a74"/>
      <path id="Path_1184" data-name="Path 1184" d="M530.233,260.639l.509-.034c.949,1.811.914,1.457.173-.026.25-.38-.586-1.354-1.1-2.061l-.793-1.389.655,1.362C529.129,258.888,528.939,259.3,530.233,260.639Z" transform="translate(146.582 73.847)" fill="#247a74"/>
      <path id="Path_1185" data-name="Path 1185" d="M522.392,255.247c2.129.2,2.888.509,4.838,2.984,1.742-.138-1.88-4.174-2.01-5.7C524.349,254.04,523.168,253.135,522.392,255.247Z" transform="translate(96.077 38.795)" fill="#247a74"/>
      <path id="Path_1186" data-name="Path 1186" d="M522.723,253.019a2.978,2.978,0,0,0,.276-.552C522.758,252.553,522.706,252.76,522.723,253.019Z" transform="translate(98.574 38.307)" fill="#247a74"/>
      <path id="Path_1187" data-name="Path 1187" d="M532.241,260.167l2.341,4.312-.16-.733Z" transform="translate(171.161 97.007)" fill="#247a74"/>
      <path id="Path_1188" data-name="Path 1188" d="M522.253,253.664c.346-.026.6-.414,1.458.276C521.771,251.448,521.917,253.7,522.253,253.664Z" transform="translate(93.474 40.577)" fill="#247a74"/>
      <path id="Path_1189" data-name="Path 1189" d="M527.917,259.449c1.345,1.388,1.363-.121,2.139.2C529.366,259.7,525.313,255.517,527.917,259.449Z" transform="translate(131.616 78.676)" fill="#247a74"/>
      <path id="Path_1190" data-name="Path 1190" d="M522.657,255.053c.345-.026,2.035,1.328,3.553,3.458C525.528,257.062,522.415,252.422,522.657,255.053Z" transform="translate(97.994 51.977)" fill="#247a74"/>
      <path id="Path_1191" data-name="Path 1191" d="M526.866,259.475l.842.682-.489-2.223Z" transform="translate(130.185 79.981)" fill="#247a74"/>
      <path id="Path_1192" data-name="Path 1192" d="M538.647,270.629c-1.5-3.639-7.192-5.812-7.683-9.537-4.493-1.389,3.544,3.975,1.69,4.708C534.318,266.076,537.767,269.387,538.647,270.629Z" transform="translate(150.861 102.317)" fill="#247a74"/>
      <path id="Path_1193" data-name="Path 1193" d="M530.484,261.452a.852.852,0,0,0-.621.095A1.648,1.648,0,0,0,530.484,261.452Z" transform="translate(153.031 106.665)" fill="#247a74"/>
      <path id="Path_1194" data-name="Path 1194" d="M527.171,261.6a8.27,8.27,0,0,0-.517-1.224A9.326,9.326,0,0,0,527.171,261.6Z" transform="translate(128.568 98.623)" fill="#247a74"/>
      <path id="Path_1195" data-name="Path 1195" d="M531.609,266.99l-2.251-5.459c1.492,3.639-.905,5.329,2.812,9.546,1.448.267,1.388-1.613.207-3.777Z" transform="translate(149.181 107.405)" fill="#247a74"/>
      <path id="Path_1196" data-name="Path 1196" d="M522.06,256.473l-.836-2.19-1.147.095C520.819,254.861,523.078,258.344,522.06,256.473Z" transform="translate(78.429 52.151)" fill="#247a74"/>
      <path id="Path_1197" data-name="Path 1197" d="M520.052,254.374l.216-.026C520.146,254.262,520.069,254.262,520.052,254.374Z" transform="translate(78.239 52.181)" fill="#247a74"/>
      <path id="Path_1198" data-name="Path 1198" d="M527.542,261.735c.69-.052.94-.457.7-1.552C527.4,259.493,525.689,259.631,527.542,261.735Z" transform="translate(129.007 94.292)" fill="#247a74"/>
      <path id="Path_1199" data-name="Path 1199" d="M520.822,257.023l.346-1.542-.784,1.187Z" transform="translate(80.775 61.287)" fill="#247a74"/>
      <path id="Path_1200" data-name="Path 1200" d="M519.955,255.838l-.842-.682.488,2.206.843.682Z" transform="translate(71.082 58.809)" fill="#247a74"/>
      <path id="Path_1201" data-name="Path 1201" d="M531.269,269.039c1.035-.078-1.673-4.389-2.518-5.071l-1.121,1.216c3.13,3.139.268-.388,1.707-.13Z" transform="translate(136.008 125.983)" fill="#247a74"/>
      <path id="Path_1202" data-name="Path 1202" d="M535.414,270.829c-1.6-2.5.862-2.329,2.725-.224.594,1.095.586,2.6,2.19,3.6l-3.518-6.484c4.32,2.276,4.958,8.244,5.872,10.813,2.069-.509-.526-4.536,1.069-5.812-.88-.121-2.32-1.276-3.561-2.268-3.294-3.881-.388-3.346.4-4.527-2.079-1.155-2.881-2.915-3.665-4.863a1.942,1.942,0,0,0-.319-.759l-.293-.69-.112.112a14.689,14.689,0,0,0-1.517-1.613c.069,1.871-3.32-.862-3.924-.44,5.83,5.924-.707,3.061.2,5.622l-.3,1.311-.293.268a8.277,8.277,0,0,1-1.854-3.251c.647,1.578-1.018,2.216.793,4.165l-2.9,2.552a6.627,6.627,0,0,1-1.121-.837,4.438,4.438,0,0,0,.767,1.147l-12.633,11.124c1.052-.026,2.811.983,4.062,1.138,2.509,5.062,1.707-.129,4.725,4.13.759,1.82-.267,1.9-1.457,1.242,1.526,2.147,3.57,3.484,5.493,5.959,3.743,1.19-4.018-8.7-1.19-8.546,1.931,2.475,3.2,5.01,3.975,3.811l.164.742c-.569-4.1,5.838,4.415,1.4-3.113l2.863,3.527c-1.423-3.268.043-4.518.483-5.683l.5.716c-.975-5.941.621-1.932,1.854-5.786L538.449,283c2.311.94-1.155-3.665-.129-3.751.509.716,2.776,3.156,2.691,4.294l-1.967-8.865C537.621,271.407,536.759,272.226,535.414,270.829Z" transform="translate(27.65 77.627)" fill="#247a74"/>
      <path id="Path_1203" data-name="Path 1203" d="M516.934,259.688a.561.561,0,0,0,.7-.354A1.441,1.441,0,0,0,516.934,259.688Z" transform="translate(54.469 90.657)" fill="#247a74"/>
      <path id="Path_1204" data-name="Path 1204" d="M513.313,260.978l.889-.785A.812.812,0,0,0,513.313,260.978Z" transform="translate(26.865 97.205)" fill="#247a74"/>
      <path id="Path_1205" data-name="Path 1205" d="M520.816,261.854c-2.052-1.354-1.682-2.88-2.7-4.3l-1.923,1.69c1.13,1.345,2.173,3.027,3.234,4.216Z" transform="translate(48.827 77.064)" fill="#247a74"/>
      <path id="Path_1206" data-name="Path 1206" d="M515.884,257.507a15.7,15.7,0,0,1,1.613,3l1.061-.931A5.784,5.784,0,0,0,515.884,257.507Z" transform="translate(46.464 76.729)" fill="#247a74"/>
      <path id="Path_1207" data-name="Path 1207" d="M523.036,265.846l-.253.4.328,1.482Z" transform="translate(99.059 140.298)" fill="#247a74"/>
      <path id="Path_1208" data-name="Path 1208" d="M521.607,266.787c2.112,1.7,1.63-.517,1.458-1.25C522.211,266.356,521.961,265.253,521.607,266.787Z" transform="translate(90.093 137.944)" fill="#247a74"/>
      <path id="Path_1209" data-name="Path 1209" d="M523.841,268.117l.076,1.886.413.337Z" transform="translate(107.122 157.614)" fill="#247a74"/>
      <path id="Path_1210" data-name="Path 1210" d="M514.067,262.529l-.242.586A.594.594,0,0,0,514.067,262.529Z" transform="translate(30.768 115.013)" fill="#247a74"/>
      <path id="Path_1211" data-name="Path 1211" d="M530.3,269.292c-5.356-2.2-1.32-4.415-6.148-8.908l.241,2.621-1.026-1.44-1.034,1.6c2.2,2.078,2.535,2.044,4.484,4.527-2.647.595-2.975-2.4-6.873-4.329l-1.717,2.165-.431-.871c-.138.2.043.561.31,1.009l-5.777,7.321c.318,2.975,4.32,3.777,6.329,8.132,1.475-1.233,5.8-.466,1.932-5.415a8.115,8.115,0,0,0,2.285,2.449l-2.432-4.691-1.871-.6c-2.433-4.682,1.086-6.1,3.63-4.053-.465,2.673,4.286,6.8-.069,6.019,1.113,1.138,3.3,2.975,3.355,4.053C526.917,275.345,531.048,275.639,530.3,269.292Z" transform="translate(19.348 98.661)" fill="#247a74"/>
      <path id="Path_1212" data-name="Path 1212" d="M511.938,264.571l-.345-.457C511.731,264.39,511.869,264.579,511.938,264.571Z" transform="translate(13.752 127.097)" fill="#247a74"/>
      <path id="Path_1213" data-name="Path 1213" d="M515.6,269.277l-2.665-5.795-1.647,2.009,2.613,3.441c-.526-.983-1.233-3.242.1-2.164Z" transform="translate(11.443 122.278)" fill="#247a74"/>
      <path id="Path_1214" data-name="Path 1214" d="M511.376,263.01c.155,2.242,3.44,6.122,5.476,7.459.578,2.587-3.967-3.811-1.19.862,2.354,2.811,2.13.2,1.966-.535Z" transform="translate(12.098 118.68)" fill="#247a74"/>
      <path id="Path_1215" data-name="Path 1215" d="M512.44,262.533l1.053,1.861,1.061-.152Z" transform="translate(20.212 115.045)" fill="#247a74"/>
      <path id="Path_1216" data-name="Path 1216" d="M513.492,262.749l-1.052.138c1.043,1.164,2.07,2.3,2.854,3.035Z" transform="translate(20.21 116.691)" fill="#247a74"/>
      <path id="Path_1217" data-name="Path 1217" d="M513.477,262.822a3.011,3.011,0,0,0-1.535.224Z" transform="translate(16.413 117.135)" fill="#247a74"/>
      <path id="Path_1218" data-name="Path 1218" d="M513.741,263.291l-.449-.5-1.172.155A12.651,12.651,0,0,1,513.741,263.291Z" transform="translate(17.77 117.011)" fill="#247a74"/>
      <path id="Path_1219" data-name="Path 1219" d="M517.106,266.572c-2.38-2.656-4.9-5.433-5.277-3.837l3.69,4.061Z" transform="translate(15.544 113.006)" fill="#247a74"/>
      <path id="Path_1220" data-name="Path 1220" d="M522.7,268.252l.488,2.214.438.354-.5-2.214Z" transform="translate(98.427 158.642)" fill="#247a74"/>
      <path id="Path_1221" data-name="Path 1221" d="M521.927,268.4a13.769,13.769,0,0,0,.767,1.906A4.635,4.635,0,0,0,521.927,268.4Z" transform="translate(92.532 159.778)" fill="#247a74"/>
      <path id="Path_1222" data-name="Path 1222" d="M536.309,288.3c-3.216-1.983-1.725-4.717-4.467-4.51-2.286-2.441-4.208-6.433-2.337-5.83,1.94,2.475.492,2.208,3.035,4.26-1.776-3.251.009-1.509-3.2-5-.966-3.027-3-5.709-4.346-8.6.224,2.527-5.191.69-2.725,6.528,2.855,5.028,8.27,10.624,13.5,16.971C537.12,293.509,539.707,292.56,536.309,288.3Z" transform="translate(90.231 161.463)" fill="#247a74"/>
      <path id="Path_1223" data-name="Path 1223" d="M524.5,273.2c.69-.052.621-.414.448-1.156C523.074,269.928,524.773,272.808,524.5,273.2Z" transform="translate(108.744 181.68)" fill="#247a74"/>
      <path id="Path_1224" data-name="Path 1224" d="M518.379,266.918c.664.966.8,2.734,2.259,4.156l.25-2.121C520.483,269.039,519.474,268.013,518.379,266.918Z" transform="translate(65.485 148.472)" fill="#247a74"/>
      <path id="Path_1225" data-name="Path 1225" d="M518.791,267.048l-.121.914C518.86,267.928,518.92,267.677,518.791,267.048Z" transform="translate(67.703 149.463)" fill="#247a74"/>
      <path id="Path_1226" data-name="Path 1226" d="M518.319,266.858l.518.518A1.65,1.65,0,0,0,518.319,266.858Z" transform="translate(65.027 148.015)" fill="#247a74"/>
      <path id="Path_1227" data-name="Path 1227" d="M512.587,263.629c-1.414-1.751-1.087-.276-.931.465C511.992,264.06,512.768,264.38,512.587,263.629Z" transform="translate(13.112 117.13)" fill="#247a74"/>
      <path id="Path_1228" data-name="Path 1228" d="M511.4,266.491l-1.613-1C510.643,266.181,511.056,266.526,511.4,266.491Z" transform="translate(0 137.594)" fill="#247a74"/>
      <path id="Path_1229" data-name="Path 1229" d="M513.689,271.807a9.523,9.523,0,0,1,.646.966A7.5,7.5,0,0,0,513.689,271.807Z" transform="translate(29.731 185.743)" fill="#247a74"/>
      <path id="Path_1230" data-name="Path 1230" d="M514.671,271.919c.862,1.707-1.984.276-.518,2.768l-.508-.707.413,1.854C514.524,275.127,516.051,274.316,514.671,271.919Z" transform="translate(29.396 186.597)" fill="#247a74"/>
    </g>
  </g>
</svg>
